mtllib InnerFrame.mtl
o Pale_Blue_Wash_Jug
usemtl Blue_Ceramic
v 0.070000 0.005000 0.000000
v 0.068655 0.005000 0.013656
v 0.064672 0.005000 0.026788
v 0.058203 0.005000 0.038890
v 0.049497 0.005000 0.049497
v 0.038890 0.005000 0.058203
v 0.026788 0.005000 0.064672
v 0.013656 0.005000 0.068655
v 0.000000 0.005000 0.070000
v -0.013656 0.005000 0.068655
v -0.026788 0.005000 0.064672
v -0.038890 0.005000 0.058203
v -0.049497 0.005000 0.049497
v -0.058203 0.005000 0.038890
v -0.064672 0.005000 0.026788
v -0.068655 0.005000 0.013656
v -0.070000 0.005000 0.000000
v -0.068655 0.005000 -0.013656
v -0.064672 0.005000 -0.026788
v -0.058203 0.005000 -0.038890
v -0.049497 0.005000 -0.049497
v -0.038890 0.005000 -0.058203
v -0.026788 0.005000 -0.064672
v -0.013656 0.005000 -0.068655
v -0.000000 0.005000 -0.070000
v 0.013656 0.005000 -0.068655
v 0.026788 0.005000 -0.064672
v 0.038890 0.005000 -0.058203
v 0.049497 0.005000 -0.049497
v 0.058203 0.005000 -0.038890
v 0.064672 0.005000 -0.026788
v 0.068655 0.005000 -0.013656
v 0.070000 0.005000 -0.000000
v 0.090000 0.030000 0.000000
v 0.088271 0.030000 0.017558
v 0.083149 0.030000 0.034442
v 0.074832 0.030000 0.050001
v 0.063640 0.030000 0.063640
v 0.050001 0.030000 0.074832
v 0.034442 0.030000 0.083149
v 0.017558 0.030000 0.088271
v 0.000000 0.030000 0.090000
v -0.017558 0.030000 0.088271
v -0.034442 0.030000 0.083149
v -0.050001 0.030000 0.074832
v -0.063640 0.030000 0.063640
v -0.074832 0.030000 0.050001
v -0.083149 0.030000 0.034442
v -0.088271 0.030000 0.017558
v -0.090000 0.030000 0.000000
v -0.088271 0.030000 -0.017558
v -0.083149 0.030000 -0.034442
v -0.074832 0.030000 -0.050001
v -0.063640 0.030000 -0.063640
v -0.050001 0.030000 -0.074832
v -0.034442 0.030000 -0.083149
v -0.017558 0.030000 -0.088271
v -0.000000 0.030000 -0.090000
v 0.017558 0.030000 -0.088271
v 0.034442 0.030000 -0.083149
v 0.050001 0.030000 -0.074832
v 0.063640 0.030000 -0.063640
v 0.074832 0.030000 -0.050001
v 0.083149 0.030000 -0.034442
v 0.088271 0.030000 -0.017558
v 0.090000 0.030000 -0.000000
v 0.115000 0.090000 0.000000
v 0.112790 0.090000 0.022435
v 0.106246 0.090000 0.044009
v 0.095619 0.090000 0.063891
v 0.081317 0.090000 0.081317
v 0.063891 0.090000 0.095619
v 0.044009 0.090000 0.106246
v 0.022435 0.090000 0.112790
v 0.000000 0.090000 0.115000
v -0.022435 0.090000 0.112790
v -0.044009 0.090000 0.106246
v -0.063891 0.090000 0.095619
v -0.081317 0.090000 0.081317
v -0.095619 0.090000 0.063891
v -0.106246 0.090000 0.044009
v -0.112790 0.090000 0.022435
v -0.115000 0.090000 0.000000
v -0.112790 0.090000 -0.022435
v -0.106246 0.090000 -0.044009
v -0.095619 0.090000 -0.063891
v -0.081317 0.090000 -0.081317
v -0.063891 0.090000 -0.095619
v -0.044009 0.090000 -0.106246
v -0.022435 0.090000 -0.112790
v -0.000000 0.090000 -0.115000
v 0.022435 0.090000 -0.112790
v 0.044009 0.090000 -0.106246
v 0.063891 0.090000 -0.095619
v 0.081317 0.090000 -0.081317
v 0.095619 0.090000 -0.063891
v 0.106246 0.090000 -0.044009
v 0.112790 0.090000 -0.022435
v 0.115000 0.090000 -0.000000
v 0.110000 0.160000 0.000000
v 0.107886 0.160000 0.021460
v 0.101627 0.160000 0.042095
v 0.091462 0.160000 0.061113
v 0.077782 0.160000 0.077782
v 0.061113 0.160000 0.091462
v 0.042095 0.160000 0.101627
v 0.021460 0.160000 0.107886
v 0.000000 0.160000 0.110000
v -0.021460 0.160000 0.107886
v -0.042095 0.160000 0.101627
v -0.061113 0.160000 0.091462
v -0.077782 0.160000 0.077782
v -0.091462 0.160000 0.061113
v -0.101627 0.160000 0.042095
v -0.107886 0.160000 0.021460
v -0.110000 0.160000 0.000000
v -0.107886 0.160000 -0.021460
v -0.101627 0.160000 -0.042095
v -0.091462 0.160000 -0.061113
v -0.077782 0.160000 -0.077782
v -0.061113 0.160000 -0.091462
v -0.042095 0.160000 -0.101627
v -0.021460 0.160000 -0.107886
v -0.000000 0.160000 -0.110000
v 0.021460 0.160000 -0.107886
v 0.042095 0.160000 -0.101627
v 0.061113 0.160000 -0.091462
v 0.077782 0.160000 -0.077782
v 0.091462 0.160000 -0.061113
v 0.101627 0.160000 -0.042095
v 0.107886 0.160000 -0.021460
v 0.110000 0.160000 -0.000000
v 0.080000 0.230000 0.000000
v 0.078463 0.230000 0.015607
v 0.073910 0.230000 0.030615
v 0.066518 0.230000 0.044446
v 0.056569 0.230000 0.056569
v 0.044446 0.230000 0.066518
v 0.030615 0.230000 0.073910
v 0.015607 0.230000 0.078463
v 0.000000 0.230000 0.080000
v -0.015607 0.230000 0.078463
v -0.030615 0.230000 0.073910
v -0.044446 0.230000 0.066518
v -0.056569 0.230000 0.056569
v -0.066518 0.230000 0.044446
v -0.073910 0.230000 0.030615
v -0.078463 0.230000 0.015607
v -0.080000 0.230000 0.000000
v -0.078463 0.230000 -0.015607
v -0.073910 0.230000 -0.030615
v -0.066518 0.230000 -0.044446
v -0.056569 0.230000 -0.056569
v -0.044446 0.230000 -0.066518
v -0.030615 0.230000 -0.073910
v -0.015607 0.230000 -0.078463
v -0.000000 0.230000 -0.080000
v 0.015607 0.230000 -0.078463
v 0.030615 0.230000 -0.073910
v 0.044446 0.230000 -0.066518
v 0.056569 0.230000 -0.056569
v 0.066518 0.230000 -0.044446
v 0.073910 0.230000 -0.030615
v 0.078463 0.230000 -0.015607
v 0.080000 0.230000 -0.000000
v 0.052000 0.280000 0.000000
v 0.051001 0.280000 0.010145
v 0.048042 0.280000 0.019900
v 0.043236 0.280000 0.028890
v 0.036770 0.280000 0.036770
v 0.028890 0.280000 0.043236
v 0.019900 0.280000 0.048042
v 0.010145 0.280000 0.051001
v 0.000000 0.280000 0.052000
v -0.010145 0.280000 0.051001
v -0.019900 0.280000 0.048042
v -0.028890 0.280000 0.043236
v -0.036770 0.280000 0.036770
v -0.043236 0.280000 0.028890
v -0.048042 0.280000 0.019900
v -0.051001 0.280000 0.010145
v -0.052000 0.280000 0.000000
v -0.051001 0.280000 -0.010145
v -0.048042 0.280000 -0.019900
v -0.043236 0.280000 -0.028890
v -0.036770 0.280000 -0.036770
v -0.028890 0.280000 -0.043236
v -0.019900 0.280000 -0.048042
v -0.010145 0.280000 -0.051001
v -0.000000 0.280000 -0.052000
v 0.010145 0.280000 -0.051001
v 0.019900 0.280000 -0.048042
v 0.028890 0.280000 -0.043236
v 0.036770 0.280000 -0.036770
v 0.043236 0.280000 -0.028890
v 0.048042 0.280000 -0.019900
v 0.051001 0.280000 -0.010145
v 0.052000 0.280000 -0.000000
v 0.053000 0.340000 0.000000
v 0.051982 0.340000 0.010340
v 0.048966 0.340000 0.020282
v 0.044068 0.340000 0.029445
v 0.037477 0.340000 0.037477
v 0.029445 0.340000 0.044068
v 0.020282 0.340000 0.048966
v 0.010340 0.340000 0.051982
v 0.000000 0.340000 0.053000
v -0.010340 0.340000 0.051982
v -0.020282 0.340000 0.048966
v -0.029445 0.340000 0.044068
v -0.037477 0.340000 0.037477
v -0.044068 0.340000 0.029445
v -0.048966 0.340000 0.020282
v -0.051982 0.340000 0.010340
v -0.053000 0.340000 0.000000
v -0.051982 0.340000 -0.010340
v -0.048966 0.340000 -0.020282
v -0.044068 0.340000 -0.029445
v -0.037477 0.340000 -0.037477
v -0.029445 0.340000 -0.044068
v -0.020282 0.340000 -0.048966
v -0.010340 0.340000 -0.051982
v -0.000000 0.340000 -0.053000
v 0.010340 0.340000 -0.051982
v 0.020282 0.340000 -0.048966
v 0.029445 0.340000 -0.044068
v 0.037477 0.340000 -0.037477
v 0.044068 0.340000 -0.029445
v 0.048966 0.340000 -0.020282
v 0.051982 0.340000 -0.010340
v 0.053000 0.340000 -0.000000
v 0.067000 0.375000 0.000000
v 0.065713 0.375000 0.013071
v 0.061900 0.375000 0.025640
v 0.055708 0.375000 0.037223
v 0.047376 0.375000 0.047376
v 0.037223 0.375000 0.055708
v 0.025640 0.375000 0.061900
v 0.013071 0.375000 0.065713
v 0.000000 0.375000 0.067000
v -0.013071 0.375000 0.065713
v -0.025640 0.375000 0.061900
v -0.037223 0.375000 0.055708
v -0.047376 0.375000 0.047376
v -0.055708 0.375000 0.037223
v -0.061900 0.375000 0.025640
v -0.065713 0.375000 0.013071
v -0.067000 0.375000 0.000000
v -0.065713 0.375000 -0.013071
v -0.061900 0.375000 -0.025640
v -0.055708 0.375000 -0.037223
v -0.047376 0.375000 -0.047376
v -0.037223 0.375000 -0.055708
v -0.025640 0.375000 -0.061900
v -0.013071 0.375000 -0.065713
v -0.000000 0.375000 -0.067000
v 0.013071 0.375000 -0.065713
v 0.025640 0.375000 -0.061900
v 0.037223 0.375000 -0.055708
v 0.047376 0.375000 -0.047376
v 0.055708 0.375000 -0.037223
v 0.061900 0.375000 -0.025640
v 0.065713 0.375000 -0.013071
v 0.067000 0.375000 -0.000000
vt 0.000000 0.013333
vt 0.031250 0.013333
vt 0.062500 0.013333
vt 0.093750 0.013333
vt 0.125000 0.013333
vt 0.156250 0.013333
vt 0.187500 0.013333
vt 0.218750 0.013333
vt 0.250000 0.013333
vt 0.281250 0.013333
vt 0.312500 0.013333
vt 0.343750 0.013333
vt 0.375000 0.013333
vt 0.406250 0.013333
vt 0.437500 0.013333
vt 0.468750 0.013333
vt 0.500000 0.013333
vt 0.531250 0.013333
vt 0.562500 0.013333
vt 0.593750 0.013333
vt 0.625000 0.013333
vt 0.656250 0.013333
vt 0.687500 0.013333
vt 0.718750 0.013333
vt 0.750000 0.013333
vt 0.781250 0.013333
vt 0.812500 0.013333
vt 0.843750 0.013333
vt 0.875000 0.013333
vt 0.906250 0.013333
vt 0.937500 0.013333
vt 0.968750 0.013333
vt 1.000000 0.013333
vt 0.000000 0.080000
vt 0.031250 0.080000
vt 0.062500 0.080000
vt 0.093750 0.080000
vt 0.125000 0.080000
vt 0.156250 0.080000
vt 0.187500 0.080000
vt 0.218750 0.080000
vt 0.250000 0.080000
vt 0.281250 0.080000
vt 0.312500 0.080000
vt 0.343750 0.080000
vt 0.375000 0.080000
vt 0.406250 0.080000
vt 0.437500 0.080000
vt 0.468750 0.080000
vt 0.500000 0.080000
vt 0.531250 0.080000
vt 0.562500 0.080000
vt 0.593750 0.080000
vt 0.625000 0.080000
vt 0.656250 0.080000
vt 0.687500 0.080000
vt 0.718750 0.080000
vt 0.750000 0.080000
vt 0.781250 0.080000
vt 0.812500 0.080000
vt 0.843750 0.080000
vt 0.875000 0.080000
vt 0.906250 0.080000
vt 0.937500 0.080000
vt 0.968750 0.080000
vt 1.000000 0.080000
vt 0.000000 0.240000
vt 0.031250 0.240000
vt 0.062500 0.240000
vt 0.093750 0.240000
vt 0.125000 0.240000
vt 0.156250 0.240000
vt 0.187500 0.240000
vt 0.218750 0.240000
vt 0.250000 0.240000
vt 0.281250 0.240000
vt 0.312500 0.240000
vt 0.343750 0.240000
vt 0.375000 0.240000
vt 0.406250 0.240000
vt 0.437500 0.240000
vt 0.468750 0.240000
vt 0.500000 0.240000
vt 0.531250 0.240000
vt 0.562500 0.240000
vt 0.593750 0.240000
vt 0.625000 0.240000
vt 0.656250 0.240000
vt 0.687500 0.240000
vt 0.718750 0.240000
vt 0.750000 0.240000
vt 0.781250 0.240000
vt 0.812500 0.240000
vt 0.843750 0.240000
vt 0.875000 0.240000
vt 0.906250 0.240000
vt 0.937500 0.240000
vt 0.968750 0.240000
vt 1.000000 0.240000
vt 0.000000 0.426667
vt 0.031250 0.426667
vt 0.062500 0.426667
vt 0.093750 0.426667
vt 0.125000 0.426667
vt 0.156250 0.426667
vt 0.187500 0.426667
vt 0.218750 0.426667
vt 0.250000 0.426667
vt 0.281250 0.426667
vt 0.312500 0.426667
vt 0.343750 0.426667
vt 0.375000 0.426667
vt 0.406250 0.426667
vt 0.437500 0.426667
vt 0.468750 0.426667
vt 0.500000 0.426667
vt 0.531250 0.426667
vt 0.562500 0.426667
vt 0.593750 0.426667
vt 0.625000 0.426667
vt 0.656250 0.426667
vt 0.687500 0.426667
vt 0.718750 0.426667
vt 0.750000 0.426667
vt 0.781250 0.426667
vt 0.812500 0.426667
vt 0.843750 0.426667
vt 0.875000 0.426667
vt 0.906250 0.426667
vt 0.937500 0.426667
vt 0.968750 0.426667
vt 1.000000 0.426667
vt 0.000000 0.613333
vt 0.031250 0.613333
vt 0.062500 0.613333
vt 0.093750 0.613333
vt 0.125000 0.613333
vt 0.156250 0.613333
vt 0.187500 0.613333
vt 0.218750 0.613333
vt 0.250000 0.613333
vt 0.281250 0.613333
vt 0.312500 0.613333
vt 0.343750 0.613333
vt 0.375000 0.613333
vt 0.406250 0.613333
vt 0.437500 0.613333
vt 0.468750 0.613333
vt 0.500000 0.613333
vt 0.531250 0.613333
vt 0.562500 0.613333
vt 0.593750 0.613333
vt 0.625000 0.613333
vt 0.656250 0.613333
vt 0.687500 0.613333
vt 0.718750 0.613333
vt 0.750000 0.613333
vt 0.781250 0.613333
vt 0.812500 0.613333
vt 0.843750 0.613333
vt 0.875000 0.613333
vt 0.906250 0.613333
vt 0.937500 0.613333
vt 0.968750 0.613333
vt 1.000000 0.613333
vt 0.000000 0.746667
vt 0.031250 0.746667
vt 0.062500 0.746667
vt 0.093750 0.746667
vt 0.125000 0.746667
vt 0.156250 0.746667
vt 0.187500 0.746667
vt 0.218750 0.746667
vt 0.250000 0.746667
vt 0.281250 0.746667
vt 0.312500 0.746667
vt 0.343750 0.746667
vt 0.375000 0.746667
vt 0.406250 0.746667
vt 0.437500 0.746667
vt 0.468750 0.746667
vt 0.500000 0.746667
vt 0.531250 0.746667
vt 0.562500 0.746667
vt 0.593750 0.746667
vt 0.625000 0.746667
vt 0.656250 0.746667
vt 0.687500 0.746667
vt 0.718750 0.746667
vt 0.750000 0.746667
vt 0.781250 0.746667
vt 0.812500 0.746667
vt 0.843750 0.746667
vt 0.875000 0.746667
vt 0.906250 0.746667
vt 0.937500 0.746667
vt 0.968750 0.746667
vt 1.000000 0.746667
vt 0.000000 0.906667
vt 0.031250 0.906667
vt 0.062500 0.906667
vt 0.093750 0.906667
vt 0.125000 0.906667
vt 0.156250 0.906667
vt 0.187500 0.906667
vt 0.218750 0.906667
vt 0.250000 0.906667
vt 0.281250 0.906667
vt 0.312500 0.906667
vt 0.343750 0.906667
vt 0.375000 0.906667
vt 0.406250 0.906667
vt 0.437500 0.906667
vt 0.468750 0.906667
vt 0.500000 0.906667
vt 0.531250 0.906667
vt 0.562500 0.906667
vt 0.593750 0.906667
vt 0.625000 0.906667
vt 0.656250 0.906667
vt 0.687500 0.906667
vt 0.718750 0.906667
vt 0.750000 0.906667
vt 0.781250 0.906667
vt 0.812500 0.906667
vt 0.843750 0.906667
vt 0.875000 0.906667
vt 0.906250 0.906667
vt 0.937500 0.906667
vt 0.968750 0.906667
vt 1.000000 0.906667
vt 0.000000 1.000000
vt 0.031250 1.000000
vt 0.062500 1.000000
vt 0.093750 1.000000
vt 0.125000 1.000000
vt 0.156250 1.000000
vt 0.187500 1.000000
vt 0.218750 1.000000
vt 0.250000 1.000000
vt 0.281250 1.000000
vt 0.312500 1.000000
vt 0.343750 1.000000
vt 0.375000 1.000000
vt 0.406250 1.000000
vt 0.437500 1.000000
vt 0.468750 1.000000
vt 0.500000 1.000000
vt 0.531250 1.000000
vt 0.562500 1.000000
vt 0.593750 1.000000
vt 0.625000 1.000000
vt 0.656250 1.000000
vt 0.687500 1.000000
vt 0.718750 1.000000
vt 0.750000 1.000000
vt 0.781250 1.000000
vt 0.812500 1.000000
vt 0.843750 1.000000
vt 0.875000 1.000000
vt 0.906250 1.000000
vt 0.937500 1.000000
vt 0.968750 1.000000
vt 1.000000 1.000000
f 1/1 2/2 35/35 34/34
f 2/2 3/3 36/36 35/35
f 3/3 4/4 37/37 36/36
f 4/4 5/5 38/38 37/37
f 5/5 6/6 39/39 38/38
f 6/6 7/7 40/40 39/39
f 7/7 8/8 41/41 40/40
f 8/8 9/9 42/42 41/41
f 9/9 10/10 43/43 42/42
f 10/10 11/11 44/44 43/43
f 11/11 12/12 45/45 44/44
f 12/12 13/13 46/46 45/45
f 13/13 14/14 47/47 46/46
f 14/14 15/15 48/48 47/47
f 15/15 16/16 49/49 48/48
f 16/16 17/17 50/50 49/49
f 17/17 18/18 51/51 50/50
f 18/18 19/19 52/52 51/51
f 19/19 20/20 53/53 52/52
f 20/20 21/21 54/54 53/53
f 21/21 22/22 55/55 54/54
f 22/22 23/23 56/56 55/55
f 23/23 24/24 57/57 56/56
f 24/24 25/25 58/58 57/57
f 25/25 26/26 59/59 58/58
f 26/26 27/27 60/60 59/59
f 27/27 28/28 61/61 60/60
f 28/28 29/29 62/62 61/61
f 29/29 30/30 63/63 62/62
f 30/30 31/31 64/64 63/63
f 31/31 32/32 65/65 64/64
f 32/32 33/33 66/66 65/65
f 34/34 35/35 68/68 67/67
f 35/35 36/36 69/69 68/68
f 36/36 37/37 70/70 69/69
f 37/37 38/38 71/71 70/70
f 38/38 39/39 72/72 71/71
f 39/39 40/40 73/73 72/72
f 40/40 41/41 74/74 73/73
f 41/41 42/42 75/75 74/74
f 42/42 43/43 76/76 75/75
f 43/43 44/44 77/77 76/76
f 44/44 45/45 78/78 77/77
f 45/45 46/46 79/79 78/78
f 46/46 47/47 80/80 79/79
f 47/47 48/48 81/81 80/80
f 48/48 49/49 82/82 81/81
f 49/49 50/50 83/83 82/82
f 50/50 51/51 84/84 83/83
f 51/51 52/52 85/85 84/84
f 52/52 53/53 86/86 85/85
f 53/53 54/54 87/87 86/86
f 54/54 55/55 88/88 87/87
f 55/55 56/56 89/89 88/88
f 56/56 57/57 90/90 89/89
f 57/57 58/58 91/91 90/90
f 58/58 59/59 92/92 91/91
f 59/59 60/60 93/93 92/92
f 60/60 61/61 94/94 93/93
f 61/61 62/62 95/95 94/94
f 62/62 63/63 96/96 95/95
f 63/63 64/64 97/97 96/96
f 64/64 65/65 98/98 97/97
f 65/65 66/66 99/99 98/98
f 67/67 68/68 101/101 100/100
f 68/68 69/69 102/102 101/101
f 69/69 70/70 103/103 102/102
f 70/70 71/71 104/104 103/103
f 71/71 72/72 105/105 104/104
f 72/72 73/73 106/106 105/105
f 73/73 74/74 107/107 106/106
f 74/74 75/75 108/108 107/107
f 75/75 76/76 109/109 108/108
f 76/76 77/77 110/110 109/109
f 77/77 78/78 111/111 110/110
f 78/78 79/79 112/112 111/111
f 79/79 80/80 113/113 112/112
f 80/80 81/81 114/114 113/113
f 81/81 82/82 115/115 114/114
f 82/82 83/83 116/116 115/115
f 83/83 84/84 117/117 116/116
f 84/84 85/85 118/118 117/117
f 85/85 86/86 119/119 118/118
f 86/86 87/87 120/120 119/119
f 87/87 88/88 121/121 120/120
f 88/88 89/89 122/122 121/121
f 89/89 90/90 123/123 122/122
f 90/90 91/91 124/124 123/123
f 91/91 92/92 125/125 124/124
f 92/92 93/93 126/126 125/125
f 93/93 94/94 127/127 126/126
f 94/94 95/95 128/128 127/127
f 95/95 96/96 129/129 128/128
f 96/96 97/97 130/130 129/129
f 97/97 98/98 131/131 130/130
f 98/98 99/99 132/132 131/131
f 100/100 101/101 134/134 133/133
f 101/101 102/102 135/135 134/134
f 102/102 103/103 136/136 135/135
f 103/103 104/104 137/137 136/136
f 104/104 105/105 138/138 137/137
f 105/105 106/106 139/139 138/138
f 106/106 107/107 140/140 139/139
f 107/107 108/108 141/141 140/140
f 108/108 109/109 142/142 141/141
f 109/109 110/110 143/143 142/142
f 110/110 111/111 144/144 143/143
f 111/111 112/112 145/145 144/144
f 112/112 113/113 146/146 145/145
f 113/113 114/114 147/147 146/146
f 114/114 115/115 148/148 147/147
f 115/115 116/116 149/149 148/148
f 116/116 117/117 150/150 149/149
f 117/117 118/118 151/151 150/150
f 118/118 119/119 152/152 151/151
f 119/119 120/120 153/153 152/152
f 120/120 121/121 154/154 153/153
f 121/121 122/122 155/155 154/154
f 122/122 123/123 156/156 155/155
f 123/123 124/124 157/157 156/156
f 124/124 125/125 158/158 157/157
f 125/125 126/126 159/159 158/158
f 126/126 127/127 160/160 159/159
f 127/127 128/128 161/161 160/160
f 128/128 129/129 162/162 161/161
f 129/129 130/130 163/163 162/162
f 130/130 131/131 164/164 163/163
f 131/131 132/132 165/165 164/164
f 133/133 134/134 167/167 166/166
f 134/134 135/135 168/168 167/167
f 135/135 136/136 169/169 168/168
f 136/136 137/137 170/170 169/169
f 137/137 138/138 171/171 170/170
f 138/138 139/139 172/172 171/171
f 139/139 140/140 173/173 172/172
f 140/140 141/141 174/174 173/173
f 141/141 142/142 175/175 174/174
f 142/142 143/143 176/176 175/175
f 143/143 144/144 177/177 176/176
f 144/144 145/145 178/178 177/177
f 145/145 146/146 179/179 178/178
f 146/146 147/147 180/180 179/179
f 147/147 148/148 181/181 180/180
f 148/148 149/149 182/182 181/181
f 149/149 150/150 183/183 182/182
f 150/150 151/151 184/184 183/183
f 151/151 152/152 185/185 184/184
f 152/152 153/153 186/186 185/185
f 153/153 154/154 187/187 186/186
f 154/154 155/155 188/188 187/187
f 155/155 156/156 189/189 188/188
f 156/156 157/157 190/190 189/189
f 157/157 158/158 191/191 190/190
f 158/158 159/159 192/192 191/191
f 159/159 160/160 193/193 192/192
f 160/160 161/161 194/194 193/193
f 161/161 162/162 195/195 194/194
f 162/162 163/163 196/196 195/195
f 163/163 164/164 197/197 196/196
f 164/164 165/165 198/198 197/197
f 166/166 167/167 200/200 199/199
f 167/167 168/168 201/201 200/200
f 168/168 169/169 202/202 201/201
f 169/169 170/170 203/203 202/202
f 170/170 171/171 204/204 203/203
f 171/171 172/172 205/205 204/204
f 172/172 173/173 206/206 205/205
f 173/173 174/174 207/207 206/206
f 174/174 175/175 208/208 207/207
f 175/175 176/176 209/209 208/208
f 176/176 177/177 210/210 209/209
f 177/177 178/178 211/211 210/210
f 178/178 179/179 212/212 211/211
f 179/179 180/180 213/213 212/212
f 180/180 181/181 214/214 213/213
f 181/181 182/182 215/215 214/214
f 182/182 183/183 216/216 215/215
f 183/183 184/184 217/217 216/216
f 184/184 185/185 218/218 217/217
f 185/185 186/186 219/219 218/218
f 186/186 187/187 220/220 219/219
f 187/187 188/188 221/221 220/220
f 188/188 189/189 222/222 221/221
f 189/189 190/190 223/223 222/222
f 190/190 191/191 224/224 223/223
f 191/191 192/192 225/225 224/224
f 192/192 193/193 226/226 225/225
f 193/193 194/194 227/227 226/226
f 194/194 195/195 228/228 227/227
f 195/195 196/196 229/229 228/228
f 196/196 197/197 230/230 229/229
f 197/197 198/198 231/231 230/230
f 199/199 200/200 233/233 232/232
f 200/200 201/201 234/234 233/233
f 201/201 202/202 235/235 234/234
f 202/202 203/203 236/236 235/235
f 203/203 204/204 237/237 236/236
f 204/204 205/205 238/238 237/237
f 205/205 206/206 239/239 238/238
f 206/206 207/207 240/240 239/239
f 207/207 208/208 241/241 240/240
f 208/208 209/209 242/242 241/241
f 209/209 210/210 243/243 242/242
f 210/210 211/211 244/244 243/243
f 211/211 212/212 245/245 244/244
f 212/212 213/213 246/246 245/245
f 213/213 214/214 247/247 246/246
f 214/214 215/215 248/248 247/247
f 215/215 216/216 249/249 248/248
f 216/216 217/217 250/250 249/249
f 217/217 218/218 251/251 250/250
f 218/218 219/219 252/252 251/251
f 219/219 220/220 253/253 252/252
f 220/220 221/221 254/254 253/253
f 221/221 222/222 255/255 254/254
f 222/222 223/223 256/256 255/255
f 223/223 224/224 257/257 256/256
f 224/224 225/225 258/258 257/257
f 225/225 226/226 259/259 258/258
f 226/226 227/227 260/260 259/259
f 227/227 228/228 261/261 260/260
f 228/228 229/229 262/262 261/261
f 229/229 230/230 263/263 262/262
f 230/230 231/231 264/264 263/263
o Cobalt_Jug_Rim
usemtl Cobalt_Rim
v 0.059017 0.373000 -0.000523
v 0.061355 0.367343 -0.000370
v 0.067000 0.365000 -0.000000
v 0.072645 0.367343 0.000370
v 0.074983 0.373000 0.000523
v 0.072645 0.378657 0.000370
v 0.067000 0.381000 0.000000
v 0.061355 0.378657 -0.000370
v 0.058495 0.373000 0.007701
v 0.060818 0.367343 0.008007
v 0.066427 0.365000 0.008745
v 0.072035 0.367343 0.009484
v 0.074358 0.373000 0.009789
v 0.072035 0.378657 0.009484
v 0.066427 0.381000 0.008745
v 0.060818 0.378657 0.008007
v 0.056990 0.373000 0.015270
v 0.059253 0.367343 0.015877
v 0.064717 0.365000 0.017341
v 0.070181 0.367343 0.018805
v 0.072444 0.373000 0.019411
v 0.070181 0.378657 0.018805
v 0.064717 0.381000 0.017341
v 0.059253 0.378657 0.015877
v 0.054509 0.373000 0.022578
v 0.056674 0.367343 0.023475
v 0.061900 0.365000 0.025640
v 0.067126 0.367343 0.027805
v 0.069291 0.373000 0.028701
v 0.067126 0.378657 0.027805
v 0.061900 0.381000 0.025640
v 0.056674 0.378657 0.023475
v 0.051095 0.373000 0.029500
v 0.053125 0.367343 0.030672
v 0.058024 0.365000 0.033500
v 0.062923 0.367343 0.036328
v 0.064952 0.373000 0.037500
v 0.062923 0.378657 0.036328
v 0.058024 0.381000 0.033500
v 0.053125 0.378657 0.030672
v 0.046808 0.373000 0.035917
v 0.048667 0.367343 0.037343
v 0.053155 0.365000 0.040787
v 0.057643 0.367343 0.044231
v 0.059502 0.373000 0.045657
v 0.057643 0.378657 0.044231
v 0.053155 0.381000 0.040787
v 0.048667 0.378657 0.037343
v 0.041719 0.373000 0.041719
v 0.043376 0.367343 0.043376
v 0.047376 0.365000 0.047376
v 0.051376 0.367343 0.051376
v 0.053033 0.373000 0.053033
v 0.051376 0.378657 0.051376
v 0.047376 0.381000 0.047376
v 0.043376 0.378657 0.043376
v 0.035917 0.373000 0.046808
v 0.037343 0.367343 0.048667
v 0.040787 0.365000 0.053155
v 0.044231 0.367343 0.057643
v 0.045657 0.373000 0.059502
v 0.044231 0.378657 0.057643
v 0.040787 0.381000 0.053155
v 0.037343 0.378657 0.048667
v 0.029500 0.373000 0.051095
v 0.030672 0.367343 0.053125
v 0.033500 0.365000 0.058024
v 0.036328 0.367343 0.062923
v 0.037500 0.373000 0.064952
v 0.036328 0.378657 0.062923
v 0.033500 0.381000 0.058024
v 0.030672 0.378657 0.053125
v 0.022578 0.373000 0.054509
v 0.023475 0.367343 0.056674
v 0.025640 0.365000 0.061900
v 0.027805 0.367343 0.067126
v 0.028701 0.373000 0.069291
v 0.027805 0.378657 0.067126
v 0.025640 0.381000 0.061900
v 0.023475 0.378657 0.056674
v 0.015270 0.373000 0.056990
v 0.015877 0.367343 0.059253
v 0.017341 0.365000 0.064717
v 0.018805 0.367343 0.070181
v 0.019411 0.373000 0.072444
v 0.018805 0.378657 0.070181
v 0.017341 0.381000 0.064717
v 0.015877 0.378657 0.059253
v 0.007701 0.373000 0.058495
v 0.008007 0.367343 0.060818
v 0.008745 0.365000 0.066427
v 0.009484 0.367343 0.072035
v 0.009789 0.373000 0.074358
v 0.009484 0.378657 0.072035
v 0.008745 0.381000 0.066427
v 0.008007 0.378657 0.060818
v 0.000000 0.373000 0.059000
v 0.000000 0.367343 0.061343
v 0.000000 0.365000 0.067000
v 0.000000 0.367343 0.072657
v 0.000000 0.373000 0.075000
v 0.000000 0.378657 0.072657
v 0.000000 0.381000 0.067000
v 0.000000 0.378657 0.061343
v -0.007701 0.373000 0.058495
v -0.008007 0.367343 0.060818
v -0.008745 0.365000 0.066427
v -0.009484 0.367343 0.072035
v -0.009789 0.373000 0.074358
v -0.009484 0.378657 0.072035
v -0.008745 0.381000 0.066427
v -0.008007 0.378657 0.060818
v -0.015270 0.373000 0.056990
v -0.015877 0.367343 0.059253
v -0.017341 0.365000 0.064717
v -0.018805 0.367343 0.070181
v -0.019411 0.373000 0.072444
v -0.018805 0.378657 0.070181
v -0.017341 0.381000 0.064717
v -0.015877 0.378657 0.059253
v -0.022578 0.373000 0.054509
v -0.023475 0.367343 0.056674
v -0.025640 0.365000 0.061900
v -0.027805 0.367343 0.067126
v -0.028701 0.373000 0.069291
v -0.027805 0.378657 0.067126
v -0.025640 0.381000 0.061900
v -0.023475 0.378657 0.056674
v -0.029500 0.373000 0.051095
v -0.030672 0.367343 0.053125
v -0.033500 0.365000 0.058024
v -0.036328 0.367343 0.062923
v -0.037500 0.373000 0.064952
v -0.036328 0.378657 0.062923
v -0.033500 0.381000 0.058024
v -0.030672 0.378657 0.053125
v -0.035917 0.373000 0.046808
v -0.037343 0.367343 0.048667
v -0.040787 0.365000 0.053155
v -0.044231 0.367343 0.057643
v -0.045657 0.373000 0.059502
v -0.044231 0.378657 0.057643
v -0.040787 0.381000 0.053155
v -0.037343 0.378657 0.048667
v -0.041719 0.373000 0.041719
v -0.043376 0.367343 0.043376
v -0.047376 0.365000 0.047376
v -0.051376 0.367343 0.051376
v -0.053033 0.373000 0.053033
v -0.051376 0.378657 0.051376
v -0.047376 0.381000 0.047376
v -0.043376 0.378657 0.043376
v -0.046808 0.373000 0.035917
v -0.048667 0.367343 0.037343
v -0.053155 0.365000 0.040787
v -0.057643 0.367343 0.044231
v -0.059502 0.373000 0.045657
v -0.057643 0.378657 0.044231
v -0.053155 0.381000 0.040787
v -0.048667 0.378657 0.037343
v -0.051095 0.373000 0.029500
v -0.053125 0.367343 0.030672
v -0.058024 0.365000 0.033500
v -0.062923 0.367343 0.036328
v -0.064952 0.373000 0.037500
v -0.062923 0.378657 0.036328
v -0.058024 0.381000 0.033500
v -0.053125 0.378657 0.030672
v -0.054509 0.373000 0.022578
v -0.056674 0.367343 0.023475
v -0.061900 0.365000 0.025640
v -0.067126 0.367343 0.027805
v -0.069291 0.373000 0.028701
v -0.067126 0.378657 0.027805
v -0.061900 0.381000 0.025640
v -0.056674 0.378657 0.023475
v -0.056990 0.373000 0.015270
v -0.059253 0.367343 0.015877
v -0.064717 0.365000 0.017341
v -0.070181 0.367343 0.018805
v -0.072444 0.373000 0.019411
v -0.070181 0.378657 0.018805
v -0.064717 0.381000 0.017341
v -0.059253 0.378657 0.015877
v -0.058495 0.373000 0.007701
v -0.060818 0.367343 0.008007
v -0.066427 0.365000 0.008745
v -0.072035 0.367343 0.009484
v -0.074358 0.373000 0.009789
v -0.072035 0.378657 0.009484
v -0.066427 0.381000 0.008745
v -0.060818 0.378657 0.008007
v -0.059000 0.373000 0.000000
v -0.061343 0.367343 0.000000
v -0.067000 0.365000 0.000000
v -0.072657 0.367343 0.000000
v -0.075000 0.373000 0.000000
v -0.072657 0.378657 0.000000
v -0.067000 0.381000 0.000000
v -0.061343 0.378657 0.000000
v -0.058495 0.373000 -0.007701
v -0.060818 0.367343 -0.008007
v -0.066427 0.365000 -0.008745
v -0.072035 0.367343 -0.009484
v -0.074358 0.373000 -0.009789
v -0.072035 0.378657 -0.009484
v -0.066427 0.381000 -0.008745
v -0.060818 0.378657 -0.008007
v -0.056990 0.373000 -0.015270
v -0.059253 0.367343 -0.015877
v -0.064717 0.365000 -0.017341
v -0.070181 0.367343 -0.018805
v -0.072444 0.373000 -0.019411
v -0.070181 0.378657 -0.018805
v -0.064717 0.381000 -0.017341
v -0.059253 0.378657 -0.015877
v -0.054509 0.373000 -0.022578
v -0.056674 0.367343 -0.023475
v -0.061900 0.365000 -0.025640
v -0.067126 0.367343 -0.027805
v -0.069291 0.373000 -0.028701
v -0.067126 0.378657 -0.027805
v -0.061900 0.381000 -0.025640
v -0.056674 0.378657 -0.023475
v -0.051095 0.373000 -0.029500
v -0.053125 0.367343 -0.030672
v -0.058024 0.365000 -0.033500
v -0.062923 0.367343 -0.036328
v -0.064952 0.373000 -0.037500
v -0.062923 0.378657 -0.036328
v -0.058024 0.381000 -0.033500
v -0.053125 0.378657 -0.030672
v -0.046808 0.373000 -0.035917
v -0.048667 0.367343 -0.037343
v -0.053155 0.365000 -0.040787
v -0.057643 0.367343 -0.044231
v -0.059502 0.373000 -0.045657
v -0.057643 0.378657 -0.044231
v -0.053155 0.381000 -0.040787
v -0.048667 0.378657 -0.037343
v -0.041719 0.373000 -0.041719
v -0.043376 0.367343 -0.043376
v -0.047376 0.365000 -0.047376
v -0.051376 0.367343 -0.051376
v -0.053033 0.373000 -0.053033
v -0.051376 0.378657 -0.051376
v -0.047376 0.381000 -0.047376
v -0.043376 0.378657 -0.043376
v -0.035917 0.373000 -0.046808
v -0.037343 0.367343 -0.048667
v -0.040787 0.365000 -0.053155
v -0.044231 0.367343 -0.057643
v -0.045657 0.373000 -0.059502
v -0.044231 0.378657 -0.057643
v -0.040787 0.381000 -0.053155
v -0.037343 0.378657 -0.048667
v -0.029500 0.373000 -0.051095
v -0.030672 0.367343 -0.053125
v -0.033500 0.365000 -0.058024
v -0.036328 0.367343 -0.062923
v -0.037500 0.373000 -0.064952
v -0.036328 0.378657 -0.062923
v -0.033500 0.381000 -0.058024
v -0.030672 0.378657 -0.053125
v -0.022578 0.373000 -0.054509
v -0.023475 0.367343 -0.056674
v -0.025640 0.365000 -0.061900
v -0.027805 0.367343 -0.067126
v -0.028701 0.373000 -0.069291
v -0.027805 0.378657 -0.067126
v -0.025640 0.381000 -0.061900
v -0.023475 0.378657 -0.056674
v -0.015270 0.373000 -0.056990
v -0.015877 0.367343 -0.059253
v -0.017341 0.365000 -0.064717
v -0.018805 0.367343 -0.070181
v -0.019411 0.373000 -0.072444
v -0.018805 0.378657 -0.070181
v -0.017341 0.381000 -0.064717
v -0.015877 0.378657 -0.059253
v -0.007701 0.373000 -0.058495
v -0.008007 0.367343 -0.060818
v -0.008745 0.365000 -0.066427
v -0.009484 0.367343 -0.072035
v -0.009789 0.373000 -0.074358
v -0.009484 0.378657 -0.072035
v -0.008745 0.381000 -0.066427
v -0.008007 0.378657 -0.060818
v -0.000000 0.373000 -0.059000
v -0.000000 0.367343 -0.061343
v -0.000000 0.365000 -0.067000
v -0.000000 0.367343 -0.072657
v -0.000000 0.373000 -0.075000
v -0.000000 0.378657 -0.072657
v -0.000000 0.381000 -0.067000
v -0.000000 0.378657 -0.061343
v 0.007701 0.373000 -0.058495
v 0.008007 0.367343 -0.060818
v 0.008745 0.365000 -0.066427
v 0.009484 0.367343 -0.072035
v 0.009789 0.373000 -0.074358
v 0.009484 0.378657 -0.072035
v 0.008745 0.381000 -0.066427
v 0.008007 0.378657 -0.060818
v 0.015270 0.373000 -0.056990
v 0.015877 0.367343 -0.059253
v 0.017341 0.365000 -0.064717
v 0.018805 0.367343 -0.070181
v 0.019411 0.373000 -0.072444
v 0.018805 0.378657 -0.070181
v 0.017341 0.381000 -0.064717
v 0.015877 0.378657 -0.059253
v 0.022578 0.373000 -0.054509
v 0.023475 0.367343 -0.056674
v 0.025640 0.365000 -0.061900
v 0.027805 0.367343 -0.067126
v 0.028701 0.373000 -0.069291
v 0.027805 0.378657 -0.067126
v 0.025640 0.381000 -0.061900
v 0.023475 0.378657 -0.056674
v 0.029500 0.373000 -0.051095
v 0.030672 0.367343 -0.053125
v 0.033500 0.365000 -0.058024
v 0.036328 0.367343 -0.062923
v 0.037500 0.373000 -0.064952
v 0.036328 0.378657 -0.062923
v 0.033500 0.381000 -0.058024
v 0.030672 0.378657 -0.053125
v 0.035917 0.373000 -0.046808
v 0.037343 0.367343 -0.048667
v 0.040787 0.365000 -0.053155
v 0.044231 0.367343 -0.057643
v 0.045657 0.373000 -0.059502
v 0.044231 0.378657 -0.057643
v 0.040787 0.381000 -0.053155
v 0.037343 0.378657 -0.048667
v 0.041719 0.373000 -0.041719
v 0.043376 0.367343 -0.043376
v 0.047376 0.365000 -0.047376
v 0.051376 0.367343 -0.051376
v 0.053033 0.373000 -0.053033
v 0.051376 0.378657 -0.051376
v 0.047376 0.381000 -0.047376
v 0.043376 0.378657 -0.043376
v 0.046808 0.373000 -0.035917
v 0.048667 0.367343 -0.037343
v 0.053155 0.365000 -0.040787
v 0.057643 0.367343 -0.044231
v 0.059502 0.373000 -0.045657
v 0.057643 0.378657 -0.044231
v 0.053155 0.381000 -0.040787
v 0.048667 0.378657 -0.037343
v 0.051095 0.373000 -0.029500
v 0.053125 0.367343 -0.030672
v 0.058024 0.365000 -0.033500
v 0.062923 0.367343 -0.036328
v 0.064952 0.373000 -0.037500
v 0.062923 0.378657 -0.036328
v 0.058024 0.381000 -0.033500
v 0.053125 0.378657 -0.030672
v 0.054509 0.373000 -0.022578
v 0.056674 0.367343 -0.023475
v 0.061900 0.365000 -0.025640
v 0.067126 0.367343 -0.027805
v 0.069291 0.373000 -0.028701
v 0.067126 0.378657 -0.027805
v 0.061900 0.381000 -0.025640
v 0.056674 0.378657 -0.023475
v 0.056990 0.373000 -0.015270
v 0.059253 0.367343 -0.015877
v 0.064717 0.365000 -0.017341
v 0.070181 0.367343 -0.018805
v 0.072444 0.373000 -0.019411
v 0.070181 0.378657 -0.018805
v 0.064717 0.381000 -0.017341
v 0.059253 0.378657 -0.015877
v 0.058495 0.373000 -0.007701
v 0.060818 0.367343 -0.008007
v 0.066427 0.365000 -0.008745
v 0.072035 0.367343 -0.009484
v 0.074358 0.373000 -0.009789
v 0.072035 0.378657 -0.009484
v 0.066427 0.381000 -0.008745
v 0.060818 0.378657 -0.008007
v 0.059017 0.373000 0.000523
v 0.061355 0.367343 0.000370
v 0.067000 0.365000 -0.000000
v 0.072645 0.367343 -0.000370
v 0.074983 0.373000 -0.000523
v 0.072645 0.378657 -0.000370
v 0.067000 0.381000 -0.000000
v 0.061355 0.378657 0.000370
vt 0.029247 0.378902
vt 0.030493 0.373479
vt 0.033500 0.371700
vt 0.036507 0.374608
vt 0.037753 0.380498
vt 0.036507 0.385921
vt 0.033500 0.387700
vt 0.030493 0.384792
vt 0.033098 0.378850
vt 0.034413 0.373425
vt 0.037586 0.371643
vt 0.040759 0.374547
vt 0.042074 0.380436
vt 0.040759 0.385860
vt 0.037586 0.387643
vt 0.034413 0.384739
vt 0.036130 0.378699
vt 0.037565 0.373268
vt 0.041029 0.371472
vt 0.044493 0.374361
vt 0.045928 0.380244
vt 0.044493 0.385675
vt 0.041029 0.387472
vt 0.037565 0.384582
vt 0.038544 0.378451
vt 0.040074 0.373011
vt 0.043770 0.371190
vt 0.047465 0.374056
vt 0.048996 0.379929
vt 0.047465 0.385369
vt 0.043770 0.387190
vt 0.040074 0.384324
vt 0.040298 0.378110
vt 0.041898 0.372656
vt 0.045762 0.370802
vt 0.049626 0.373635
vt 0.051226 0.379495
vt 0.049626 0.384949
vt 0.045762 0.386802
vt 0.041898 0.383969
vt 0.041362 0.377681
vt 0.043005 0.372210
vt 0.046971 0.370315
vt 0.050937 0.373107
vt 0.052579 0.378950
vt 0.050937 0.384421
vt 0.046971 0.386315
vt 0.043005 0.383524
vt 0.041719 0.377172
vt 0.043376 0.371681
vt 0.047376 0.369738
vt 0.051376 0.372481
vt 0.053033 0.378303
vt 0.051376 0.383794
vt 0.047376 0.385738
vt 0.043376 0.382994
vt 0.041362 0.376592
vt 0.043005 0.371077
vt 0.046971 0.369079
vt 0.050937 0.371766
vt 0.052579 0.377566
vt 0.050937 0.383080
vt 0.046971 0.385079
vt 0.043005 0.382391
vt 0.040298 0.375950
vt 0.041898 0.370410
vt 0.045762 0.368350
vt 0.049626 0.370976
vt 0.051226 0.376750
vt 0.049626 0.382290
vt 0.045762 0.384350
vt 0.041898 0.381724
vt 0.038544 0.375258
vt 0.040074 0.369691
vt 0.043770 0.367564
vt 0.047465 0.370124
vt 0.048996 0.375870
vt 0.047465 0.381437
vt 0.043770 0.383564
vt 0.040074 0.381004
vt 0.036130 0.374527
vt 0.037565 0.368931
vt 0.041029 0.366734
vt 0.044493 0.369224
vt 0.045928 0.374941
vt 0.044493 0.380537
vt 0.041029 0.382734
vt 0.037565 0.380245
vt 0.033098 0.373770
vt 0.034413 0.368144
vt 0.037586 0.365875
vt 0.040759 0.368292
vt 0.042074 0.373979
vt 0.040759 0.379605
vt 0.037586 0.381875
vt 0.034413 0.379458
vt 0.029500 0.373000
vt 0.030672 0.367343
vt 0.033500 0.365000
vt 0.036328 0.367343
vt 0.037500 0.373000
vt 0.036328 0.378657
vt 0.033500 0.381000
vt 0.030672 0.378657
vt 0.025397 0.372230
vt 0.026406 0.366542
vt 0.028841 0.364125
vt 0.031276 0.366395
vt 0.032284 0.372021
vt 0.031276 0.377708
vt 0.028841 0.380125
vt 0.026406 0.377856
vt 0.020860 0.371473
vt 0.021688 0.365755
vt 0.023688 0.363266
vt 0.025688 0.365463
vt 0.026517 0.371059
vt 0.025688 0.376776
vt 0.023688 0.379266
vt 0.021688 0.377069
vt 0.015965 0.370742
vt 0.016599 0.364996
vt 0.018130 0.362436
vt 0.019661 0.364563
vt 0.020295 0.370130
vt 0.019661 0.375876
vt 0.018130 0.378436
vt 0.016599 0.376309
vt 0.010798 0.370050
vt 0.011227 0.364276
vt 0.012262 0.361650
vt 0.013297 0.363710
vt 0.013726 0.369250
vt 0.013297 0.375024
vt 0.012262 0.377650
vt 0.011227 0.375590
vt 0.005445 0.369408
vt 0.005662 0.363609
vt 0.006184 0.360921
vt 0.006706 0.362920
vt 0.006922 0.368434
vt 0.006706 0.374234
vt 0.006184 0.376921
vt 0.005662 0.374923
vt 0.000000 0.368828
vt 0.000000 0.363006
vt 0.000000 0.360262
vt 0.000000 0.362206
vt 0.000000 0.367697
vt 0.000000 0.373519
vt 0.000000 0.376262
vt 0.000000 0.374319
vt 0.994555 0.368319
vt 0.994338 0.362476
vt 0.993816 0.359685
vt 0.993294 0.361579
vt 0.993078 0.367050
vt 0.993294 0.372893
vt 0.993816 0.375685
vt 0.994338 0.373790
vt 0.989202 0.367890
vt 0.988773 0.362031
vt 0.987738 0.359198
vt 0.986703 0.361051
vt 0.986274 0.366505
vt 0.986703 0.372365
vt 0.987738 0.375198
vt 0.988773 0.373344
vt 0.984035 0.367549
vt 0.983401 0.361676
vt 0.981870 0.358810
vt 0.980339 0.360631
vt 0.979705 0.366071
vt 0.980339 0.371944
vt 0.981870 0.374810
vt 0.983401 0.372989
vt 0.979140 0.367301
vt 0.978312 0.361418
vt 0.976312 0.358528
vt 0.974312 0.360325
vt 0.973483 0.365756
vt 0.974312 0.371639
vt 0.976312 0.374528
vt 0.978312 0.372732
vt 0.974603 0.367150
vt 0.973594 0.361261
vt 0.971159 0.358357
vt 0.968724 0.360140
vt 0.967716 0.365564
vt 0.968724 0.371453
vt 0.971159 0.374357
vt 0.973594 0.372575
vt 0.970500 0.367100
vt 0.969328 0.361209
vt 0.966500 0.358300
vt 0.963672 0.360077
vt 0.962500 0.365500
vt 0.963672 0.371391
vt 0.966500 0.374300
vt 0.969328 0.372523
vt 0.966902 0.367150
vt 0.965587 0.361261
vt 0.962414 0.358357
vt 0.959241 0.360140
vt 0.957926 0.365564
vt 0.959241 0.371453
vt 0.962414 0.374357
vt 0.965587 0.372575
vt 0.963870 0.367301
vt 0.962435 0.361418
vt 0.958971 0.358528
vt 0.955507 0.360325
vt 0.954072 0.365756
vt 0.955507 0.371639
vt 0.958971 0.374528
vt 0.962435 0.372732
vt 0.961456 0.367549
vt 0.959926 0.361676
vt 0.956230 0.358810
vt 0.952535 0.360631
vt 0.951004 0.366071
vt 0.952535 0.371944
vt 0.956230 0.374810
vt 0.959926 0.372989
vt 0.959702 0.367890
vt 0.958102 0.362031
vt 0.954238 0.359198
vt 0.950374 0.361051
vt 0.948774 0.366505
vt 0.950374 0.372365
vt 0.954238 0.375198
vt 0.958102 0.373344
vt 0.958638 0.368319
vt 0.956995 0.362476
vt 0.953029 0.359685
vt 0.949063 0.361579
vt 0.947421 0.367050
vt 0.949063 0.372893
vt 0.953029 0.375685
vt 0.956995 0.373790
vt 0.958281 0.368828
vt 0.956624 0.363006
vt 0.952624 0.360262
vt 0.948624 0.362206
vt 0.946967 0.367697
vt 0.948624 0.373519
vt 0.952624 0.376262
vt 0.956624 0.374319
vt 0.958638 0.369408
vt 0.956995 0.363609
vt 0.953029 0.360921
vt 0.949063 0.362920
vt 0.947421 0.368434
vt 0.949063 0.374234
vt 0.953029 0.376921
vt 0.956995 0.374923
vt 0.959702 0.370050
vt 0.958102 0.364276
vt 0.954238 0.361650
vt 0.950374 0.363710
vt 0.948774 0.369250
vt 0.950374 0.375024
vt 0.954238 0.377650
vt 0.958102 0.375590
vt 0.961456 0.370742
vt 0.959926 0.364996
vt 0.956230 0.362436
vt 0.952535 0.364563
vt 0.951004 0.370130
vt 0.952535 0.375876
vt 0.956230 0.378436
vt 0.959926 0.376309
vt 0.963870 0.371473
vt 0.962435 0.365755
vt 0.958971 0.363266
vt 0.955507 0.365463
vt 0.954072 0.371059
vt 0.955507 0.376776
vt 0.958971 0.379266
vt 0.962435 0.377069
vt 0.966902 0.372230
vt 0.965587 0.366542
vt 0.962414 0.364125
vt 0.959241 0.366395
vt 0.957926 0.372021
vt 0.959241 0.377708
vt 0.962414 0.380125
vt 0.965587 0.377856
vt 0.970500 0.373000
vt 0.969328 0.367343
vt 0.966500 0.365000
vt 0.963672 0.367343
vt 0.962500 0.373000
vt 0.963672 0.378657
vt 0.966500 0.381000
vt 0.969328 0.378657
vt 0.974603 0.373770
vt 0.973594 0.368144
vt 0.971159 0.365875
vt 0.968724 0.368292
vt 0.967716 0.373979
vt 0.968724 0.379605
vt 0.971159 0.381875
vt 0.973594 0.379458
vt 0.979140 0.374527
vt 0.978312 0.368931
vt 0.976312 0.366734
vt 0.974312 0.369224
vt 0.973483 0.374941
vt 0.974312 0.380537
vt 0.976312 0.382734
vt 0.978312 0.380245
vt 0.984035 0.375258
vt 0.983401 0.369691
vt 0.981870 0.367564
vt 0.980339 0.370124
vt 0.979705 0.375870
vt 0.980339 0.381437
vt 0.981870 0.383564
vt 0.983401 0.381004
vt 0.989202 0.375950
vt 0.988773 0.370410
vt 0.987738 0.368350
vt 0.986703 0.370976
vt 0.986274 0.376750
vt 0.986703 0.382290
vt 0.987738 0.384350
vt 0.988773 0.381724
vt 0.994555 0.376592
vt 0.994338 0.371077
vt 0.993816 0.369079
vt 0.993294 0.371766
vt 0.993078 0.377566
vt 0.993294 0.383080
vt 0.993816 0.385079
vt 0.994338 0.382391
vt 1.000000 0.377172
vt 1.000000 0.371681
vt 1.000000 0.369738
vt 1.000000 0.372481
vt 1.000000 0.378303
vt 1.000000 0.383794
vt 1.000000 0.385738
vt 1.000000 0.382994
vt 0.005445 0.377681
vt 0.005662 0.372210
vt 0.006184 0.370315
vt 0.006706 0.373107
vt 0.006922 0.378950
vt 0.006706 0.384421
vt 0.006184 0.386315
vt 0.005662 0.383524
vt 0.010798 0.378110
vt 0.011227 0.372656
vt 0.012262 0.370802
vt 0.013297 0.373635
vt 0.013726 0.379495
vt 0.013297 0.384949
vt 0.012262 0.386802
vt 0.011227 0.383969
vt 0.015965 0.378451
vt 0.016599 0.373011
vt 0.018130 0.371190
vt 0.019661 0.374056
vt 0.020295 0.379929
vt 0.019661 0.385369
vt 0.018130 0.387190
vt 0.016599 0.384324
vt 0.020860 0.378699
vt 0.021688 0.373268
vt 0.023688 0.371472
vt 0.025688 0.374361
vt 0.026517 0.380244
vt 0.025688 0.385675
vt 0.023688 0.387472
vt 0.021688 0.384582
vt 0.025397 0.378850
vt 0.026406 0.373425
vt 0.028841 0.371643
vt 0.031276 0.374547
vt 0.032284 0.380436
vt 0.031276 0.385860
vt 0.028841 0.387643
vt 0.026406 0.384739
vt 0.029770 0.378902
vt 0.030863 0.373479
vt 0.033500 0.371700
vt 0.036137 0.374608
vt 0.037230 0.380498
vt 0.036137 0.385921
vt 0.033500 0.387700
vt 0.030863 0.384792
f 265/265 266/266 274/274 273/273
f 266/266 267/267 275/275 274/274
f 267/267 268/268 276/276 275/275
f 268/268 269/269 277/277 276/276
f 269/269 270/270 278/278 277/277
f 270/270 271/271 279/279 278/278
f 271/271 272/272 280/280 279/279
f 272/272 265/265 273/273 280/280
f 273/273 274/274 282/282 281/281
f 274/274 275/275 283/283 282/282
f 275/275 276/276 284/284 283/283
f 276/276 277/277 285/285 284/284
f 277/277 278/278 286/286 285/285
f 278/278 279/279 287/287 286/286
f 279/279 280/280 288/288 287/287
f 280/280 273/273 281/281 288/288
f 281/281 282/282 290/290 289/289
f 282/282 283/283 291/291 290/290
f 283/283 284/284 292/292 291/291
f 284/284 285/285 293/293 292/292
f 285/285 286/286 294/294 293/293
f 286/286 287/287 295/295 294/294
f 287/287 288/288 296/296 295/295
f 288/288 281/281 289/289 296/296
f 289/289 290/290 298/298 297/297
f 290/290 291/291 299/299 298/298
f 291/291 292/292 300/300 299/299
f 292/292 293/293 301/301 300/300
f 293/293 294/294 302/302 301/301
f 294/294 295/295 303/303 302/302
f 295/295 296/296 304/304 303/303
f 296/296 289/289 297/297 304/304
f 297/297 298/298 306/306 305/305
f 298/298 299/299 307/307 306/306
f 299/299 300/300 308/308 307/307
f 300/300 301/301 309/309 308/308
f 301/301 302/302 310/310 309/309
f 302/302 303/303 311/311 310/310
f 303/303 304/304 312/312 311/311
f 304/304 297/297 305/305 312/312
f 305/305 306/306 314/314 313/313
f 306/306 307/307 315/315 314/314
f 307/307 308/308 316/316 315/315
f 308/308 309/309 317/317 316/316
f 309/309 310/310 318/318 317/317
f 310/310 311/311 319/319 318/318
f 311/311 312/312 320/320 319/319
f 312/312 305/305 313/313 320/320
f 313/313 314/314 322/322 321/321
f 314/314 315/315 323/323 322/322
f 315/315 316/316 324/324 323/323
f 316/316 317/317 325/325 324/324
f 317/317 318/318 326/326 325/325
f 318/318 319/319 327/327 326/326
f 319/319 320/320 328/328 327/327
f 320/320 313/313 321/321 328/328
f 321/321 322/322 330/330 329/329
f 322/322 323/323 331/331 330/330
f 323/323 324/324 332/332 331/331
f 324/324 325/325 333/333 332/332
f 325/325 326/326 334/334 333/333
f 326/326 327/327 335/335 334/334
f 327/327 328/328 336/336 335/335
f 328/328 321/321 329/329 336/336
f 329/329 330/330 338/338 337/337
f 330/330 331/331 339/339 338/338
f 331/331 332/332 340/340 339/339
f 332/332 333/333 341/341 340/340
f 333/333 334/334 342/342 341/341
f 334/334 335/335 343/343 342/342
f 335/335 336/336 344/344 343/343
f 336/336 329/329 337/337 344/344
f 337/337 338/338 346/346 345/345
f 338/338 339/339 347/347 346/346
f 339/339 340/340 348/348 347/347
f 340/340 341/341 349/349 348/348
f 341/341 342/342 350/350 349/349
f 342/342 343/343 351/351 350/350
f 343/343 344/344 352/352 351/351
f 344/344 337/337 345/345 352/352
f 345/345 346/346 354/354 353/353
f 346/346 347/347 355/355 354/354
f 347/347 348/348 356/356 355/355
f 348/348 349/349 357/357 356/356
f 349/349 350/350 358/358 357/357
f 350/350 351/351 359/359 358/358
f 351/351 352/352 360/360 359/359
f 352/352 345/345 353/353 360/360
f 353/353 354/354 362/362 361/361
f 354/354 355/355 363/363 362/362
f 355/355 356/356 364/364 363/363
f 356/356 357/357 365/365 364/364
f 357/357 358/358 366/366 365/365
f 358/358 359/359 367/367 366/366
f 359/359 360/360 368/368 367/367
f 360/360 353/353 361/361 368/368
f 361/361 362/362 370/370 369/369
f 362/362 363/363 371/371 370/370
f 363/363 364/364 372/372 371/371
f 364/364 365/365 373/373 372/372
f 365/365 366/366 374/374 373/373
f 366/366 367/367 375/375 374/374
f 367/367 368/368 376/376 375/375
f 368/368 361/361 369/369 376/376
f 369/369 370/370 378/378 377/377
f 370/370 371/371 379/379 378/378
f 371/371 372/372 380/380 379/379
f 372/372 373/373 381/381 380/380
f 373/373 374/374 382/382 381/381
f 374/374 375/375 383/383 382/382
f 375/375 376/376 384/384 383/383
f 376/376 369/369 377/377 384/384
f 377/377 378/378 386/386 385/385
f 378/378 379/379 387/387 386/386
f 379/379 380/380 388/388 387/387
f 380/380 381/381 389/389 388/388
f 381/381 382/382 390/390 389/389
f 382/382 383/383 391/391 390/390
f 383/383 384/384 392/392 391/391
f 384/384 377/377 385/385 392/392
f 385/385 386/386 394/394 393/393
f 386/386 387/387 395/395 394/394
f 387/387 388/388 396/396 395/395
f 388/388 389/389 397/397 396/396
f 389/389 390/390 398/398 397/397
f 390/390 391/391 399/399 398/398
f 391/391 392/392 400/400 399/399
f 392/392 385/385 393/393 400/400
f 393/393 394/394 402/402 401/401
f 394/394 395/395 403/403 402/402
f 395/395 396/396 404/404 403/403
f 396/396 397/397 405/405 404/404
f 397/397 398/398 406/406 405/405
f 398/398 399/399 407/407 406/406
f 399/399 400/400 408/408 407/407
f 400/400 393/393 401/401 408/408
f 401/401 402/402 410/410 409/409
f 402/402 403/403 411/411 410/410
f 403/403 404/404 412/412 411/411
f 404/404 405/405 413/413 412/412
f 405/405 406/406 414/414 413/413
f 406/406 407/407 415/415 414/414
f 407/407 408/408 416/416 415/415
f 408/408 401/401 409/409 416/416
f 409/409 410/410 418/418 417/417
f 410/410 411/411 419/419 418/418
f 411/411 412/412 420/420 419/419
f 412/412 413/413 421/421 420/420
f 413/413 414/414 422/422 421/421
f 414/414 415/415 423/423 422/422
f 415/415 416/416 424/424 423/423
f 416/416 409/409 417/417 424/424
f 417/417 418/418 426/426 425/425
f 418/418 419/419 427/427 426/426
f 419/419 420/420 428/428 427/427
f 420/420 421/421 429/429 428/428
f 421/421 422/422 430/430 429/429
f 422/422 423/423 431/431 430/430
f 423/423 424/424 432/432 431/431
f 424/424 417/417 425/425 432/432
f 425/425 426/426 434/434 433/433
f 426/426 427/427 435/435 434/434
f 427/427 428/428 436/436 435/435
f 428/428 429/429 437/437 436/436
f 429/429 430/430 438/438 437/437
f 430/430 431/431 439/439 438/438
f 431/431 432/432 440/440 439/439
f 432/432 425/425 433/433 440/440
f 433/433 434/434 442/442 441/441
f 434/434 435/435 443/443 442/442
f 435/435 436/436 444/444 443/443
f 436/436 437/437 445/445 444/444
f 437/437 438/438 446/446 445/445
f 438/438 439/439 447/447 446/446
f 439/439 440/440 448/448 447/447
f 440/440 433/433 441/441 448/448
f 441/441 442/442 450/450 449/449
f 442/442 443/443 451/451 450/450
f 443/443 444/444 452/452 451/451
f 444/444 445/445 453/453 452/452
f 445/445 446/446 454/454 453/453
f 446/446 447/447 455/455 454/454
f 447/447 448/448 456/456 455/455
f 448/448 441/441 449/449 456/456
f 449/449 450/450 458/458 457/457
f 450/450 451/451 459/459 458/458
f 451/451 452/452 460/460 459/459
f 452/452 453/453 461/461 460/460
f 453/453 454/454 462/462 461/461
f 454/454 455/455 463/463 462/462
f 455/455 456/456 464/464 463/463
f 456/456 449/449 457/457 464/464
f 457/457 458/458 466/466 465/465
f 458/458 459/459 467/467 466/466
f 459/459 460/460 468/468 467/467
f 460/460 461/461 469/469 468/468
f 461/461 462/462 470/470 469/469
f 462/462 463/463 471/471 470/470
f 463/463 464/464 472/472 471/471
f 464/464 457/457 465/465 472/472
f 465/465 466/466 474/474 473/473
f 466/466 467/467 475/475 474/474
f 467/467 468/468 476/476 475/475
f 468/468 469/469 477/477 476/476
f 469/469 470/470 478/478 477/477
f 470/470 471/471 479/479 478/478
f 471/471 472/472 480/480 479/479
f 472/472 465/465 473/473 480/480
f 473/473 474/474 482/482 481/481
f 474/474 475/475 483/483 482/482
f 475/475 476/476 484/484 483/483
f 476/476 477/477 485/485 484/484
f 477/477 478/478 486/486 485/485
f 478/478 479/479 487/487 486/486
f 479/479 480/480 488/488 487/487
f 480/480 473/473 481/481 488/488
f 481/481 482/482 490/490 489/489
f 482/482 483/483 491/491 490/490
f 483/483 484/484 492/492 491/491
f 484/484 485/485 493/493 492/492
f 485/485 486/486 494/494 493/493
f 486/486 487/487 495/495 494/494
f 487/487 488/488 496/496 495/495
f 488/488 481/481 489/489 496/496
f 489/489 490/490 498/498 497/497
f 490/490 491/491 499/499 498/498
f 491/491 492/492 500/500 499/499
f 492/492 493/493 501/501 500/500
f 493/493 494/494 502/502 501/501
f 494/494 495/495 503/503 502/502
f 495/495 496/496 504/504 503/503
f 496/496 489/489 497/497 504/504
f 497/497 498/498 506/506 505/505
f 498/498 499/499 507/507 506/506
f 499/499 500/500 508/508 507/507
f 500/500 501/501 509/509 508/508
f 501/501 502/502 510/510 509/509
f 502/502 503/503 511/511 510/510
f 503/503 504/504 512/512 511/511
f 504/504 497/497 505/505 512/512
f 505/505 506/506 514/514 513/513
f 506/506 507/507 515/515 514/514
f 507/507 508/508 516/516 515/515
f 508/508 509/509 517/517 516/516
f 509/509 510/510 518/518 517/517
f 510/510 511/511 519/519 518/518
f 511/511 512/512 520/520 519/519
f 512/512 505/505 513/513 520/520
f 513/513 514/514 522/522 521/521
f 514/514 515/515 523/523 522/522
f 515/515 516/516 524/524 523/523
f 516/516 517/517 525/525 524/524
f 517/517 518/518 526/526 525/525
f 518/518 519/519 527/527 526/526
f 519/519 520/520 528/528 527/527
f 520/520 513/513 521/521 528/528
f 521/521 522/522 530/530 529/529
f 522/522 523/523 531/531 530/530
f 523/523 524/524 532/532 531/531
f 524/524 525/525 533/533 532/532
f 525/525 526/526 534/534 533/533
f 526/526 527/527 535/535 534/534
f 527/527 528/528 536/536 535/535
f 528/528 521/521 529/529 536/536
f 529/529 530/530 538/538 537/537
f 530/530 531/531 539/539 538/538
f 531/531 532/532 540/540 539/539
f 532/532 533/533 541/541 540/540
f 533/533 534/534 542/542 541/541
f 534/534 535/535 543/543 542/542
f 535/535 536/536 544/544 543/543
f 536/536 529/529 537/537 544/544
f 537/537 538/538 546/546 545/545
f 538/538 539/539 547/547 546/546
f 539/539 540/540 548/548 547/547
f 540/540 541/541 549/549 548/548
f 541/541 542/542 550/550 549/549
f 542/542 543/543 551/551 550/550
f 543/543 544/544 552/552 551/551
f 544/544 537/537 545/545 552/552
f 545/545 546/546 554/554 553/553
f 546/546 547/547 555/555 554/554
f 547/547 548/548 556/556 555/555
f 548/548 549/549 557/557 556/556
f 549/549 550/550 558/558 557/557
f 550/550 551/551 559/559 558/558
f 551/551 552/552 560/560 559/559
f 552/552 545/545 553/553 560/560
f 553/553 554/554 562/562 561/561
f 554/554 555/555 563/563 562/562
f 555/555 556/556 564/564 563/563
f 556/556 557/557 565/565 564/564
f 557/557 558/558 566/566 565/565
f 558/558 559/559 567/567 566/566
f 559/559 560/560 568/568 567/567
f 560/560 553/553 561/561 568/568
f 561/561 562/562 570/570 569/569
f 562/562 563/563 571/571 570/570
f 563/563 564/564 572/572 571/571
f 564/564 565/565 573/573 572/572
f 565/565 566/566 574/574 573/573
f 566/566 567/567 575/575 574/574
f 567/567 568/568 576/576 575/575
f 568/568 561/561 569/569 576/576
f 569/569 570/570 578/578 577/577
f 570/570 571/571 579/579 578/578
f 571/571 572/572 580/580 579/579
f 572/572 573/573 581/581 580/580
f 573/573 574/574 582/582 581/581
f 574/574 575/575 583/583 582/582
f 575/575 576/576 584/584 583/583
f 576/576 569/569 577/577 584/584
f 577/577 578/578 586/586 585/585
f 578/578 579/579 587/587 586/586
f 579/579 580/580 588/588 587/587
f 580/580 581/581 589/589 588/588
f 581/581 582/582 590/590 589/589
f 582/582 583/583 591/591 590/590
f 583/583 584/584 592/592 591/591
f 584/584 577/577 585/585 592/592
f 585/585 586/586 594/594 593/593
f 586/586 587/587 595/595 594/594
f 587/587 588/588 596/596 595/595
f 588/588 589/589 597/597 596/596
f 589/589 590/590 598/598 597/597
f 590/590 591/591 599/599 598/598
f 591/591 592/592 600/600 599/599
f 592/592 585/585 593/593 600/600
f 593/593 594/594 602/602 601/601
f 594/594 595/595 603/603 602/602
f 595/595 596/596 604/604 603/603
f 596/596 597/597 605/605 604/604
f 597/597 598/598 606/606 605/605
f 598/598 599/599 607/607 606/606
f 599/599 600/600 608/608 607/607
f 600/600 593/593 601/601 608/608
f 601/601 602/602 610/610 609/609
f 602/602 603/603 611/611 610/610
f 603/603 604/604 612/612 611/611
f 604/604 605/605 613/613 612/612
f 605/605 606/606 614/614 613/613
f 606/606 607/607 615/615 614/614
f 607/607 608/608 616/616 615/615
f 608/608 601/601 609/609 616/616
f 609/609 610/610 618/618 617/617
f 610/610 611/611 619/619 618/618
f 611/611 612/612 620/620 619/619
f 612/612 613/613 621/621 620/620
f 613/613 614/614 622/622 621/621
f 614/614 615/615 623/623 622/622
f 615/615 616/616 624/624 623/623
f 616/616 609/609 617/617 624/624
f 617/617 618/618 626/626 625/625
f 618/618 619/619 627/627 626/626
f 619/619 620/620 628/628 627/627
f 620/620 621/621 629/629 628/628
f 621/621 622/622 630/630 629/629
f 622/622 623/623 631/631 630/630
f 623/623 624/624 632/632 631/631
f 624/624 617/617 625/625 632/632
f 625/625 626/626 634/634 633/633
f 626/626 627/627 635/635 634/634
f 627/627 628/628 636/636 635/635
f 628/628 629/629 637/637 636/636
f 629/629 630/630 638/638 637/637
f 630/630 631/631 639/639 638/638
f 631/631 632/632 640/640 639/639
f 632/632 625/625 633/633 640/640
f 633/633 634/634 642/642 641/641
f 634/634 635/635 643/643 642/642
f 635/635 636/636 644/644 643/643
f 636/636 637/637 645/645 644/644
f 637/637 638/638 646/646 645/645
f 638/638 639/639 647/647 646/646
f 639/639 640/640 648/648 647/647
f 640/640 633/633 641/641 648/648
f 641/641 642/642 650/650 649/649
f 642/642 643/643 651/651 650/650
f 643/643 644/644 652/652 651/651
f 644/644 645/645 653/653 652/652
f 645/645 646/646 654/654 653/653
f 646/646 647/647 655/655 654/654
f 647/647 648/648 656/656 655/655
f 648/648 641/641 649/649 656/656
o Loop_Handle
usemtl Blue_Ceramic
v -0.045000 0.320000 -0.018000
v -0.049350 0.308038 -0.012728
v -0.051151 0.303084 -0.000000
v -0.049350 0.308038 0.012728
v -0.045000 0.320000 0.018000
v -0.040650 0.331962 0.012728
v -0.038849 0.336916 0.000000
v -0.040650 0.331962 -0.012728
v -0.100000 0.340000 -0.018000
v -0.099060 0.327307 -0.012728
v -0.098670 0.322049 -0.000000
v -0.099060 0.327307 0.012728
v -0.100000 0.340000 0.018000
v -0.100940 0.352693 0.012728
v -0.101330 0.357951 0.000000
v -0.100940 0.352693 -0.012728
v -0.180000 0.310000 -0.018000
v -0.171222 0.300783 -0.012728
v -0.167586 0.296966 -0.000000
v -0.171222 0.300783 0.012728
v -0.180000 0.310000 0.018000
v -0.188778 0.319217 0.012728
v -0.192414 0.323034 0.000000
v -0.188778 0.319217 -0.012728
v -0.205000 0.240000 0.018000
v -0.217696 0.240907 0.012728
v -0.222954 0.241282 0.000000
v -0.217696 0.240907 -0.012728
v -0.205000 0.240000 -0.018000
v -0.192304 0.239093 -0.012728
v -0.187046 0.238718 -0.000000
v -0.192304 0.239093 0.012728
v -0.190000 0.170000 0.018000
v -0.200793 0.163254 0.012728
v -0.205264 0.160460 0.000000
v -0.200793 0.163254 -0.012728
v -0.190000 0.170000 -0.018000
v -0.179207 0.176746 -0.012728
v -0.174736 0.179540 -0.000000
v -0.179207 0.176746 0.012728
v -0.130000 0.120000 0.018000
v -0.134939 0.108269 0.012728
v -0.136985 0.103411 0.000000
v -0.134939 0.108269 -0.012728
v -0.130000 0.120000 -0.018000
v -0.125061 0.131731 -0.012728
v -0.123015 0.136589 -0.000000
v -0.125061 0.131731 0.012728
v -0.095000 0.130000 0.018000
v -0.091503 0.117762 0.012728
v -0.090055 0.112693 0.000000
v -0.091503 0.117762 -0.012728
v -0.095000 0.130000 -0.018000
v -0.098497 0.142238 -0.012728
v -0.099945 0.147307 -0.000000
v -0.098497 0.142238 0.012728
vt 0.968500 0.315500
vt 0.968961 0.303103
vt 0.974424 0.297969
vt 0.981689 0.303103
vt 0.986500 0.315500
vt 0.986039 0.327897
vt 0.980576 0.333031
vt 0.973311 0.327897
vt 0.941000 0.330000
vt 0.944106 0.317401
vt 0.950665 0.312182
vt 0.956834 0.317401
vt 0.959000 0.330000
vt 0.955894 0.342599
vt 0.949335 0.347818
vt 0.943166 0.342599
vt 0.901000 0.292000
vt 0.908025 0.283661
vt 0.916207 0.280207
vt 0.920753 0.283661
vt 0.919000 0.292000
vt 0.911975 0.300339
vt 0.903793 0.303793
vt 0.899247 0.300339
vt 0.906500 0.219500
vt 0.897516 0.219137
vt 0.888523 0.218987
vt 0.884788 0.219137
vt 0.888500 0.219500
vt 0.897484 0.219863
vt 0.906477 0.220013
vt 0.910212 0.219863
vt 0.914000 0.151000
vt 0.905967 0.143175
vt 0.897368 0.139934
vt 0.893239 0.143175
vt 0.896000 0.151000
vt 0.904033 0.158825
vt 0.912632 0.162066
vt 0.916761 0.158825
vt 0.944000 0.107000
vt 0.938894 0.094776
vt 0.931507 0.089712
vt 0.926166 0.094776
vt 0.926000 0.107000
vt 0.931106 0.119224
vt 0.938493 0.124288
vt 0.943834 0.119224
vt 0.961500 0.120500
vt 0.960612 0.108611
vt 0.954972 0.103687
vt 0.947884 0.108611
vt 0.943500 0.120500
vt 0.944388 0.132389
vt 0.950028 0.137313
vt 0.957116 0.132389
f 657/657 658/658 666/666 665/665
f 658/658 659/659 667/667 666/666
f 659/659 660/660 668/668 667/667
f 660/660 661/661 669/669 668/668
f 661/661 662/662 670/670 669/669
f 662/662 663/663 671/671 670/670
f 663/663 664/664 672/672 671/671
f 664/664 657/657 665/665 672/672
f 665/665 666/666 674/674 673/673
f 666/666 667/667 675/675 674/674
f 667/667 668/668 676/676 675/675
f 668/668 669/669 677/677 676/676
f 669/669 670/670 678/678 677/677
f 670/670 671/671 679/679 678/678
f 671/671 672/672 680/680 679/679
f 672/672 665/665 673/673 680/680
f 673/673 674/674 682/682 681/681
f 674/674 675/675 683/683 682/682
f 675/675 676/676 684/684 683/683
f 676/676 677/677 685/685 684/684
f 677/677 678/678 686/686 685/685
f 678/678 679/679 687/687 686/686
f 679/679 680/680 688/688 687/687
f 680/680 673/673 681/681 688/688
f 681/681 682/682 690/690 689/689
f 682/682 683/683 691/691 690/690
f 683/683 684/684 692/692 691/691
f 684/684 685/685 693/693 692/692
f 685/685 686/686 694/694 693/693
f 686/686 687/687 695/695 694/694
f 687/687 688/688 696/696 695/695
f 688/688 681/681 689/689 696/696
f 689/689 690/690 698/698 697/697
f 690/690 691/691 699/699 698/698
f 691/691 692/692 700/700 699/699
f 692/692 693/693 701/701 700/700
f 693/693 694/694 702/702 701/701
f 694/694 695/695 703/703 702/702
f 695/695 696/696 704/704 703/703
f 696/696 689/689 697/697 704/704
f 697/697 698/698 706/706 705/705
f 698/698 699/699 707/707 706/706
f 699/699 700/700 708/708 707/707
f 700/700 701/701 709/709 708/708
f 701/701 702/702 710/710 709/709
f 702/702 703/703 711/711 710/710
f 703/703 704/704 712/712 711/711
f 704/704 697/697 705/705 712/712
o Pouring_Lip
usemtl Blue_Ceramic
v 0.045000 0.357500 -0.027500
v 0.105000 0.357500 -0.027500
v 0.045000 0.378500 -0.027500
v 0.105000 0.378500 -0.027500
v 0.045000 0.357500 0.027500
v 0.105000 0.357500 0.027500
v 0.045000 0.378500 0.027500
v 0.105000 0.378500 0.027500
vt 0.008750 0.362000
vt 0.038750 0.368000
vt 0.008750 0.383000
vt 0.038750 0.389000
vt 0.036250 0.362000
vt 0.066250 0.368000
vt 0.036250 0.383000
vt 0.066250 0.389000
f 713/713 715/715 716/716 714/714
f 717/717 718/718 720/720 719/719
f 713/713 714/714 718/718 717/717
f 715/715 719/719 720/720 716/716
f 713/713 717/717 719/719 715/715
f 714/714 716/716 720/720 718/718
