mtllib InnerFrame.mtl
o Shallow_Wash_Basin
usemtl Blue_Ceramic
v 0.045000 0.020000 0.000000
v 0.044135 0.020000 0.008779
v 0.041575 0.020000 0.017221
v 0.037416 0.020000 0.025001
v 0.031820 0.020000 0.031820
v 0.025001 0.020000 0.037416
v 0.017221 0.020000 0.041575
v 0.008779 0.020000 0.044135
v 0.000000 0.020000 0.045000
v -0.008779 0.020000 0.044135
v -0.017221 0.020000 0.041575
v -0.025001 0.020000 0.037416
v -0.031820 0.020000 0.031820
v -0.037416 0.020000 0.025001
v -0.041575 0.020000 0.017221
v -0.044135 0.020000 0.008779
v -0.045000 0.020000 0.000000
v -0.044135 0.020000 -0.008779
v -0.041575 0.020000 -0.017221
v -0.037416 0.020000 -0.025001
v -0.031820 0.020000 -0.031820
v -0.025001 0.020000 -0.037416
v -0.017221 0.020000 -0.041575
v -0.008779 0.020000 -0.044135
v -0.000000 0.020000 -0.045000
v 0.008779 0.020000 -0.044135
v 0.017221 0.020000 -0.041575
v 0.025001 0.020000 -0.037416
v 0.031820 0.020000 -0.031820
v 0.037416 0.020000 -0.025001
v 0.041575 0.020000 -0.017221
v 0.044135 0.020000 -0.008779
v 0.045000 0.020000 -0.000000
v 0.100000 0.025000 0.000000
v 0.098079 0.025000 0.019509
v 0.092388 0.025000 0.038268
v 0.083147 0.025000 0.055557
v 0.070711 0.025000 0.070711
v 0.055557 0.025000 0.083147
v 0.038268 0.025000 0.092388
v 0.019509 0.025000 0.098079
v 0.000000 0.025000 0.100000
v -0.019509 0.025000 0.098079
v -0.038268 0.025000 0.092388
v -0.055557 0.025000 0.083147
v -0.070711 0.025000 0.070711
v -0.083147 0.025000 0.055557
v -0.092388 0.025000 0.038268
v -0.098079 0.025000 0.019509
v -0.100000 0.025000 0.000000
v -0.098079 0.025000 -0.019509
v -0.092388 0.025000 -0.038268
v -0.083147 0.025000 -0.055557
v -0.070711 0.025000 -0.070711
v -0.055557 0.025000 -0.083147
v -0.038268 0.025000 -0.092388
v -0.019509 0.025000 -0.098079
v -0.000000 0.025000 -0.100000
v 0.019509 0.025000 -0.098079
v 0.038268 0.025000 -0.092388
v 0.055557 0.025000 -0.083147
v 0.070711 0.025000 -0.070711
v 0.083147 0.025000 -0.055557
v 0.092388 0.025000 -0.038268
v 0.098079 0.025000 -0.019509
v 0.100000 0.025000 -0.000000
v 0.170000 0.045000 0.000000
v 0.166733 0.045000 0.033165
v 0.157060 0.045000 0.065056
v 0.141350 0.045000 0.094447
v 0.120208 0.045000 0.120208
v 0.094447 0.045000 0.141350
v 0.065056 0.045000 0.157060
v 0.033165 0.045000 0.166733
v 0.000000 0.045000 0.170000
v -0.033165 0.045000 0.166733
v -0.065056 0.045000 0.157060
v -0.094447 0.045000 0.141350
v -0.120208 0.045000 0.120208
v -0.141350 0.045000 0.094447
v -0.157060 0.045000 0.065056
v -0.166733 0.045000 0.033165
v -0.170000 0.045000 0.000000
v -0.166733 0.045000 -0.033165
v -0.157060 0.045000 -0.065056
v -0.141350 0.045000 -0.094447
v -0.120208 0.045000 -0.120208
v -0.094447 0.045000 -0.141350
v -0.065056 0.045000 -0.157060
v -0.033165 0.045000 -0.166733
v -0.000000 0.045000 -0.170000
v 0.033165 0.045000 -0.166733
v 0.065056 0.045000 -0.157060
v 0.094447 0.045000 -0.141350
v 0.120208 0.045000 -0.120208
v 0.141350 0.045000 -0.094447
v 0.157060 0.045000 -0.065056
v 0.166733 0.045000 -0.033165
v 0.170000 0.045000 -0.000000
v 0.230000 0.070000 0.000000
v 0.225581 0.070000 0.044871
v 0.212492 0.070000 0.088017
v 0.191238 0.070000 0.127781
v 0.162635 0.070000 0.162635
v 0.127781 0.070000 0.191238
v 0.088017 0.070000 0.212492
v 0.044871 0.070000 0.225581
v 0.000000 0.070000 0.230000
v -0.044871 0.070000 0.225581
v -0.088017 0.070000 0.212492
v -0.127781 0.070000 0.191238
v -0.162635 0.070000 0.162635
v -0.191238 0.070000 0.127781
v -0.212492 0.070000 0.088017
v -0.225581 0.070000 0.044871
v -0.230000 0.070000 0.000000
v -0.225581 0.070000 -0.044871
v -0.212492 0.070000 -0.088017
v -0.191238 0.070000 -0.127781
v -0.162635 0.070000 -0.162635
v -0.127781 0.070000 -0.191238
v -0.088017 0.070000 -0.212492
v -0.044871 0.070000 -0.225581
v -0.000000 0.070000 -0.230000
v 0.044871 0.070000 -0.225581
v 0.088017 0.070000 -0.212492
v 0.127781 0.070000 -0.191238
v 0.162635 0.070000 -0.162635
v 0.191238 0.070000 -0.127781
v 0.212492 0.070000 -0.088017
v 0.225581 0.070000 -0.044871
v 0.230000 0.070000 -0.000000
v 0.250000 0.095000 0.000000
v 0.245196 0.095000 0.048773
v 0.230970 0.095000 0.095671
v 0.207867 0.095000 0.138893
v 0.176777 0.095000 0.176777
v 0.138893 0.095000 0.207867
v 0.095671 0.095000 0.230970
v 0.048773 0.095000 0.245196
v 0.000000 0.095000 0.250000
v -0.048773 0.095000 0.245196
v -0.095671 0.095000 0.230970
v -0.138893 0.095000 0.207867
v -0.176777 0.095000 0.176777
v -0.207867 0.095000 0.138893
v -0.230970 0.095000 0.095671
v -0.245196 0.095000 0.048773
v -0.250000 0.095000 0.000000
v -0.245196 0.095000 -0.048773
v -0.230970 0.095000 -0.095671
v -0.207867 0.095000 -0.138893
v -0.176777 0.095000 -0.176777
v -0.138893 0.095000 -0.207867
v -0.095671 0.095000 -0.230970
v -0.048773 0.095000 -0.245196
v -0.000000 0.095000 -0.250000
v 0.048773 0.095000 -0.245196
v 0.095671 0.095000 -0.230970
v 0.138893 0.095000 -0.207867
v 0.176777 0.095000 -0.176777
v 0.207867 0.095000 -0.138893
v 0.230970 0.095000 -0.095671
v 0.245196 0.095000 -0.048773
v 0.250000 0.095000 -0.000000
v 0.255000 0.105000 0.000000
v 0.250100 0.105000 0.049748
v 0.235589 0.105000 0.097584
v 0.212025 0.105000 0.141670
v 0.180312 0.105000 0.180312
v 0.141670 0.105000 0.212025
v 0.097584 0.105000 0.235589
v 0.049748 0.105000 0.250100
v 0.000000 0.105000 0.255000
v -0.049748 0.105000 0.250100
v -0.097584 0.105000 0.235589
v -0.141670 0.105000 0.212025
v -0.180312 0.105000 0.180312
v -0.212025 0.105000 0.141670
v -0.235589 0.105000 0.097584
v -0.250100 0.105000 0.049748
v -0.255000 0.105000 0.000000
v -0.250100 0.105000 -0.049748
v -0.235589 0.105000 -0.097584
v -0.212025 0.105000 -0.141670
v -0.180312 0.105000 -0.180312
v -0.141670 0.105000 -0.212025
v -0.097584 0.105000 -0.235589
v -0.049748 0.105000 -0.250100
v -0.000000 0.105000 -0.255000
v 0.049748 0.105000 -0.250100
v 0.097584 0.105000 -0.235589
v 0.141670 0.105000 -0.212025
v 0.180312 0.105000 -0.180312
v 0.212025 0.105000 -0.141670
v 0.235589 0.105000 -0.097584
v 0.250100 0.105000 -0.049748
v 0.255000 0.105000 -0.000000
vt 0.000000 0.190476
vt 0.031250 0.190476
vt 0.062500 0.190476
vt 0.093750 0.190476
vt 0.125000 0.190476
vt 0.156250 0.190476
vt 0.187500 0.190476
vt 0.218750 0.190476
vt 0.250000 0.190476
vt 0.281250 0.190476
vt 0.312500 0.190476
vt 0.343750 0.190476
vt 0.375000 0.190476
vt 0.406250 0.190476
vt 0.437500 0.190476
vt 0.468750 0.190476
vt 0.500000 0.190476
vt 0.531250 0.190476
vt 0.562500 0.190476
vt 0.593750 0.190476
vt 0.625000 0.190476
vt 0.656250 0.190476
vt 0.687500 0.190476
vt 0.718750 0.190476
vt 0.750000 0.190476
vt 0.781250 0.190476
vt 0.812500 0.190476
vt 0.843750 0.190476
vt 0.875000 0.190476
vt 0.906250 0.190476
vt 0.937500 0.190476
vt 0.968750 0.190476
vt 1.000000 0.190476
vt 0.000000 0.238095
vt 0.031250 0.238095
vt 0.062500 0.238095
vt 0.093750 0.238095
vt 0.125000 0.238095
vt 0.156250 0.238095
vt 0.187500 0.238095
vt 0.218750 0.238095
vt 0.250000 0.238095
vt 0.281250 0.238095
vt 0.312500 0.238095
vt 0.343750 0.238095
vt 0.375000 0.238095
vt 0.406250 0.238095
vt 0.437500 0.238095
vt 0.468750 0.238095
vt 0.500000 0.238095
vt 0.531250 0.238095
vt 0.562500 0.238095
vt 0.593750 0.238095
vt 0.625000 0.238095
vt 0.656250 0.238095
vt 0.687500 0.238095
vt 0.718750 0.238095
vt 0.750000 0.238095
vt 0.781250 0.238095
vt 0.812500 0.238095
vt 0.843750 0.238095
vt 0.875000 0.238095
vt 0.906250 0.238095
vt 0.937500 0.238095
vt 0.968750 0.238095
vt 1.000000 0.238095
vt 0.000000 0.428571
vt 0.031250 0.428571
vt 0.062500 0.428571
vt 0.093750 0.428571
vt 0.125000 0.428571
vt 0.156250 0.428571
vt 0.187500 0.428571
vt 0.218750 0.428571
vt 0.250000 0.428571
vt 0.281250 0.428571
vt 0.312500 0.428571
vt 0.343750 0.428571
vt 0.375000 0.428571
vt 0.406250 0.428571
vt 0.437500 0.428571
vt 0.468750 0.428571
vt 0.500000 0.428571
vt 0.531250 0.428571
vt 0.562500 0.428571
vt 0.593750 0.428571
vt 0.625000 0.428571
vt 0.656250 0.428571
vt 0.687500 0.428571
vt 0.718750 0.428571
vt 0.750000 0.428571
vt 0.781250 0.428571
vt 0.812500 0.428571
vt 0.843750 0.428571
vt 0.875000 0.428571
vt 0.906250 0.428571
vt 0.937500 0.428571
vt 0.968750 0.428571
vt 1.000000 0.428571
vt 0.000000 0.666667
vt 0.031250 0.666667
vt 0.062500 0.666667
vt 0.093750 0.666667
vt 0.125000 0.666667
vt 0.156250 0.666667
vt 0.187500 0.666667
vt 0.218750 0.666667
vt 0.250000 0.666667
vt 0.281250 0.666667
vt 0.312500 0.666667
vt 0.343750 0.666667
vt 0.375000 0.666667
vt 0.406250 0.666667
vt 0.437500 0.666667
vt 0.468750 0.666667
vt 0.500000 0.666667
vt 0.531250 0.666667
vt 0.562500 0.666667
vt 0.593750 0.666667
vt 0.625000 0.666667
vt 0.656250 0.666667
vt 0.687500 0.666667
vt 0.718750 0.666667
vt 0.750000 0.666667
vt 0.781250 0.666667
vt 0.812500 0.666667
vt 0.843750 0.666667
vt 0.875000 0.666667
vt 0.906250 0.666667
vt 0.937500 0.666667
vt 0.968750 0.666667
vt 1.000000 0.666667
vt 0.000000 0.904762
vt 0.031250 0.904762
vt 0.062500 0.904762
vt 0.093750 0.904762
vt 0.125000 0.904762
vt 0.156250 0.904762
vt 0.187500 0.904762
vt 0.218750 0.904762
vt 0.250000 0.904762
vt 0.281250 0.904762
vt 0.312500 0.904762
vt 0.343750 0.904762
vt 0.375000 0.904762
vt 0.406250 0.904762
vt 0.437500 0.904762
vt 0.468750 0.904762
vt 0.500000 0.904762
vt 0.531250 0.904762
vt 0.562500 0.904762
vt 0.593750 0.904762
vt 0.625000 0.904762
vt 0.656250 0.904762
vt 0.687500 0.904762
vt 0.718750 0.904762
vt 0.750000 0.904762
vt 0.781250 0.904762
vt 0.812500 0.904762
vt 0.843750 0.904762
vt 0.875000 0.904762
vt 0.906250 0.904762
vt 0.937500 0.904762
vt 0.968750 0.904762
vt 1.000000 0.904762
vt 0.000000 1.000000
vt 0.031250 1.000000
vt 0.062500 1.000000
vt 0.093750 1.000000
vt 0.125000 1.000000
vt 0.156250 1.000000
vt 0.187500 1.000000
vt 0.218750 1.000000
vt 0.250000 1.000000
vt 0.281250 1.000000
vt 0.312500 1.000000
vt 0.343750 1.000000
vt 0.375000 1.000000
vt 0.406250 1.000000
vt 0.437500 1.000000
vt 0.468750 1.000000
vt 0.500000 1.000000
vt 0.531250 1.000000
vt 0.562500 1.000000
vt 0.593750 1.000000
vt 0.625000 1.000000
vt 0.656250 1.000000
vt 0.687500 1.000000
vt 0.718750 1.000000
vt 0.750000 1.000000
vt 0.781250 1.000000
vt 0.812500 1.000000
vt 0.843750 1.000000
vt 0.875000 1.000000
vt 0.906250 1.000000
vt 0.937500 1.000000
vt 0.968750 1.000000
vt 1.000000 1.000000
f 1/1 2/2 35/35 34/34
f 2/2 3/3 36/36 35/35
f 3/3 4/4 37/37 36/36
f 4/4 5/5 38/38 37/37
f 5/5 6/6 39/39 38/38
f 6/6 7/7 40/40 39/39
f 7/7 8/8 41/41 40/40
f 8/8 9/9 42/42 41/41
f 9/9 10/10 43/43 42/42
f 10/10 11/11 44/44 43/43
f 11/11 12/12 45/45 44/44
f 12/12 13/13 46/46 45/45
f 13/13 14/14 47/47 46/46
f 14/14 15/15 48/48 47/47
f 15/15 16/16 49/49 48/48
f 16/16 17/17 50/50 49/49
f 17/17 18/18 51/51 50/50
f 18/18 19/19 52/52 51/51
f 19/19 20/20 53/53 52/52
f 20/20 21/21 54/54 53/53
f 21/21 22/22 55/55 54/54
f 22/22 23/23 56/56 55/55
f 23/23 24/24 57/57 56/56
f 24/24 25/25 58/58 57/57
f 25/25 26/26 59/59 58/58
f 26/26 27/27 60/60 59/59
f 27/27 28/28 61/61 60/60
f 28/28 29/29 62/62 61/61
f 29/29 30/30 63/63 62/62
f 30/30 31/31 64/64 63/63
f 31/31 32/32 65/65 64/64
f 32/32 33/33 66/66 65/65
f 34/34 35/35 68/68 67/67
f 35/35 36/36 69/69 68/68
f 36/36 37/37 70/70 69/69
f 37/37 38/38 71/71 70/70
f 38/38 39/39 72/72 71/71
f 39/39 40/40 73/73 72/72
f 40/40 41/41 74/74 73/73
f 41/41 42/42 75/75 74/74
f 42/42 43/43 76/76 75/75
f 43/43 44/44 77/77 76/76
f 44/44 45/45 78/78 77/77
f 45/45 46/46 79/79 78/78
f 46/46 47/47 80/80 79/79
f 47/47 48/48 81/81 80/80
f 48/48 49/49 82/82 81/81
f 49/49 50/50 83/83 82/82
f 50/50 51/51 84/84 83/83
f 51/51 52/52 85/85 84/84
f 52/52 53/53 86/86 85/85
f 53/53 54/54 87/87 86/86
f 54/54 55/55 88/88 87/87
f 55/55 56/56 89/89 88/88
f 56/56 57/57 90/90 89/89
f 57/57 58/58 91/91 90/90
f 58/58 59/59 92/92 91/91
f 59/59 60/60 93/93 92/92
f 60/60 61/61 94/94 93/93
f 61/61 62/62 95/95 94/94
f 62/62 63/63 96/96 95/95
f 63/63 64/64 97/97 96/96
f 64/64 65/65 98/98 97/97
f 65/65 66/66 99/99 98/98
f 67/67 68/68 101/101 100/100
f 68/68 69/69 102/102 101/101
f 69/69 70/70 103/103 102/102
f 70/70 71/71 104/104 103/103
f 71/71 72/72 105/105 104/104
f 72/72 73/73 106/106 105/105
f 73/73 74/74 107/107 106/106
f 74/74 75/75 108/108 107/107
f 75/75 76/76 109/109 108/108
f 76/76 77/77 110/110 109/109
f 77/77 78/78 111/111 110/110
f 78/78 79/79 112/112 111/111
f 79/79 80/80 113/113 112/112
f 80/80 81/81 114/114 113/113
f 81/81 82/82 115/115 114/114
f 82/82 83/83 116/116 115/115
f 83/83 84/84 117/117 116/116
f 84/84 85/85 118/118 117/117
f 85/85 86/86 119/119 118/118
f 86/86 87/87 120/120 119/119
f 87/87 88/88 121/121 120/120
f 88/88 89/89 122/122 121/121
f 89/89 90/90 123/123 122/122
f 90/90 91/91 124/124 123/123
f 91/91 92/92 125/125 124/124
f 92/92 93/93 126/126 125/125
f 93/93 94/94 127/127 126/126
f 94/94 95/95 128/128 127/127
f 95/95 96/96 129/129 128/128
f 96/96 97/97 130/130 129/129
f 97/97 98/98 131/131 130/130
f 98/98 99/99 132/132 131/131
f 100/100 101/101 134/134 133/133
f 101/101 102/102 135/135 134/134
f 102/102 103/103 136/136 135/135
f 103/103 104/104 137/137 136/136
f 104/104 105/105 138/138 137/137
f 105/105 106/106 139/139 138/138
f 106/106 107/107 140/140 139/139
f 107/107 108/108 141/141 140/140
f 108/108 109/109 142/142 141/141
f 109/109 110/110 143/143 142/142
f 110/110 111/111 144/144 143/143
f 111/111 112/112 145/145 144/144
f 112/112 113/113 146/146 145/145
f 113/113 114/114 147/147 146/146
f 114/114 115/115 148/148 147/147
f 115/115 116/116 149/149 148/148
f 116/116 117/117 150/150 149/149
f 117/117 118/118 151/151 150/150
f 118/118 119/119 152/152 151/151
f 119/119 120/120 153/153 152/152
f 120/120 121/121 154/154 153/153
f 121/121 122/122 155/155 154/154
f 122/122 123/123 156/156 155/155
f 123/123 124/124 157/157 156/156
f 124/124 125/125 158/158 157/157
f 125/125 126/126 159/159 158/158
f 126/126 127/127 160/160 159/159
f 127/127 128/128 161/161 160/160
f 128/128 129/129 162/162 161/161
f 129/129 130/130 163/163 162/162
f 130/130 131/131 164/164 163/163
f 131/131 132/132 165/165 164/164
f 133/133 134/134 167/167 166/166
f 134/134 135/135 168/168 167/167
f 135/135 136/136 169/169 168/168
f 136/136 137/137 170/170 169/169
f 137/137 138/138 171/171 170/170
f 138/138 139/139 172/172 171/171
f 139/139 140/140 173/173 172/172
f 140/140 141/141 174/174 173/173
f 141/141 142/142 175/175 174/174
f 142/142 143/143 176/176 175/175
f 143/143 144/144 177/177 176/176
f 144/144 145/145 178/178 177/177
f 145/145 146/146 179/179 178/178
f 146/146 147/147 180/180 179/179
f 147/147 148/148 181/181 180/180
f 148/148 149/149 182/182 181/181
f 149/149 150/150 183/183 182/182
f 150/150 151/151 184/184 183/183
f 151/151 152/152 185/185 184/184
f 152/152 153/153 186/186 185/185
f 153/153 154/154 187/187 186/186
f 154/154 155/155 188/188 187/187
f 155/155 156/156 189/189 188/188
f 156/156 157/157 190/190 189/189
f 157/157 158/158 191/191 190/190
f 158/158 159/159 192/192 191/191
f 159/159 160/160 193/193 192/192
f 160/160 161/161 194/194 193/193
f 161/161 162/162 195/195 194/194
f 162/162 163/163 196/196 195/195
f 163/163 164/164 197/197 196/196
f 164/164 165/165 198/198 197/197
o Blue_Basin_Rim
usemtl Cobalt_Rim
v 0.247017 0.104000 -0.000523
v 0.249355 0.098343 -0.000370
v 0.255000 0.096000 -0.000000
v 0.260645 0.098343 0.000370
v 0.262983 0.104000 0.000523
v 0.260645 0.109657 0.000370
v 0.255000 0.112000 0.000000
v 0.249355 0.109657 -0.000370
v 0.244887 0.104000 0.032240
v 0.247210 0.098343 0.032546
v 0.252818 0.096000 0.033284
v 0.258427 0.098343 0.034023
v 0.260750 0.104000 0.034328
v 0.258427 0.109657 0.034023
v 0.252818 0.112000 0.033284
v 0.247210 0.109657 0.032546
v 0.238584 0.104000 0.063928
v 0.240847 0.098343 0.064535
v 0.246311 0.096000 0.065999
v 0.251775 0.098343 0.067463
v 0.254038 0.104000 0.068069
v 0.251775 0.109657 0.067463
v 0.246311 0.112000 0.065999
v 0.240847 0.109657 0.064535
v 0.228198 0.104000 0.094523
v 0.230363 0.098343 0.095419
v 0.235589 0.096000 0.097584
v 0.240816 0.098343 0.099749
v 0.242980 0.104000 0.100646
v 0.240816 0.109657 0.099749
v 0.235589 0.112000 0.097584
v 0.230363 0.109657 0.095419
v 0.213908 0.104000 0.123500
v 0.215937 0.098343 0.124672
v 0.220836 0.096000 0.127500
v 0.225735 0.098343 0.130328
v 0.227765 0.104000 0.131500
v 0.225735 0.109657 0.130328
v 0.220836 0.112000 0.127500
v 0.215937 0.109657 0.124672
v 0.195958 0.104000 0.150364
v 0.197817 0.098343 0.151790
v 0.202305 0.096000 0.155234
v 0.206793 0.098343 0.158678
v 0.208652 0.104000 0.160104
v 0.206793 0.109657 0.158678
v 0.202305 0.112000 0.155234
v 0.197817 0.109657 0.151790
v 0.174655 0.104000 0.174655
v 0.176312 0.098343 0.176312
v 0.180312 0.096000 0.180312
v 0.184312 0.098343 0.184312
v 0.185969 0.104000 0.185969
v 0.184312 0.109657 0.184312
v 0.180312 0.112000 0.180312
v 0.176312 0.109657 0.176312
v 0.150364 0.104000 0.195958
v 0.151790 0.098343 0.197817
v 0.155234 0.096000 0.202305
v 0.158678 0.098343 0.206793
v 0.160104 0.104000 0.208652
v 0.158678 0.109657 0.206793
v 0.155234 0.112000 0.202305
v 0.151790 0.109657 0.197817
v 0.123500 0.104000 0.213908
v 0.124672 0.098343 0.215937
v 0.127500 0.096000 0.220836
v 0.130328 0.098343 0.225735
v 0.131500 0.104000 0.227765
v 0.130328 0.109657 0.225735
v 0.127500 0.112000 0.220836
v 0.124672 0.109657 0.215937
v 0.094523 0.104000 0.228198
v 0.095419 0.098343 0.230363
v 0.097584 0.096000 0.235589
v 0.099749 0.098343 0.240816
v 0.100646 0.104000 0.242980
v 0.099749 0.109657 0.240816
v 0.097584 0.112000 0.235589
v 0.095419 0.109657 0.230363
v 0.063928 0.104000 0.238584
v 0.064535 0.098343 0.240847
v 0.065999 0.096000 0.246311
v 0.067463 0.098343 0.251775
v 0.068069 0.104000 0.254038
v 0.067463 0.109657 0.251775
v 0.065999 0.112000 0.246311
v 0.064535 0.109657 0.240847
v 0.032240 0.104000 0.244887
v 0.032546 0.098343 0.247210
v 0.033284 0.096000 0.252818
v 0.034023 0.098343 0.258427
v 0.034328 0.104000 0.260750
v 0.034023 0.109657 0.258427
v 0.033284 0.112000 0.252818
v 0.032546 0.109657 0.247210
v 0.000000 0.104000 0.247000
v 0.000000 0.098343 0.249343
v 0.000000 0.096000 0.255000
v 0.000000 0.098343 0.260657
v 0.000000 0.104000 0.263000
v 0.000000 0.109657 0.260657
v 0.000000 0.112000 0.255000
v 0.000000 0.109657 0.249343
v -0.032240 0.104000 0.244887
v -0.032546 0.098343 0.247210
v -0.033284 0.096000 0.252818
v -0.034023 0.098343 0.258427
v -0.034328 0.104000 0.260750
v -0.034023 0.109657 0.258427
v -0.033284 0.112000 0.252818
v -0.032546 0.109657 0.247210
v -0.063928 0.104000 0.238584
v -0.064535 0.098343 0.240847
v -0.065999 0.096000 0.246311
v -0.067463 0.098343 0.251775
v -0.068069 0.104000 0.254038
v -0.067463 0.109657 0.251775
v -0.065999 0.112000 0.246311
v -0.064535 0.109657 0.240847
v -0.094523 0.104000 0.228198
v -0.095419 0.098343 0.230363
v -0.097584 0.096000 0.235589
v -0.099749 0.098343 0.240816
v -0.100646 0.104000 0.242980
v -0.099749 0.109657 0.240816
v -0.097584 0.112000 0.235589
v -0.095419 0.109657 0.230363
v -0.123500 0.104000 0.213908
v -0.124672 0.098343 0.215937
v -0.127500 0.096000 0.220836
v -0.130328 0.098343 0.225735
v -0.131500 0.104000 0.227765
v -0.130328 0.109657 0.225735
v -0.127500 0.112000 0.220836
v -0.124672 0.109657 0.215937
v -0.150364 0.104000 0.195958
v -0.151790 0.098343 0.197817
v -0.155234 0.096000 0.202305
v -0.158678 0.098343 0.206793
v -0.160104 0.104000 0.208652
v -0.158678 0.109657 0.206793
v -0.155234 0.112000 0.202305
v -0.151790 0.109657 0.197817
v -0.174655 0.104000 0.174655
v -0.176312 0.098343 0.176312
v -0.180312 0.096000 0.180312
v -0.184312 0.098343 0.184312
v -0.185969 0.104000 0.185969
v -0.184312 0.109657 0.184312
v -0.180312 0.112000 0.180312
v -0.176312 0.109657 0.176312
v -0.195958 0.104000 0.150364
v -0.197817 0.098343 0.151790
v -0.202305 0.096000 0.155234
v -0.206793 0.098343 0.158678
v -0.208652 0.104000 0.160104
v -0.206793 0.109657 0.158678
v -0.202305 0.112000 0.155234
v -0.197817 0.109657 0.151790
v -0.213908 0.104000 0.123500
v -0.215937 0.098343 0.124672
v -0.220836 0.096000 0.127500
v -0.225735 0.098343 0.130328
v -0.227765 0.104000 0.131500
v -0.225735 0.109657 0.130328
v -0.220836 0.112000 0.127500
v -0.215937 0.109657 0.124672
v -0.228198 0.104000 0.094523
v -0.230363 0.098343 0.095419
v -0.235589 0.096000 0.097584
v -0.240816 0.098343 0.099749
v -0.242980 0.104000 0.100646
v -0.240816 0.109657 0.099749
v -0.235589 0.112000 0.097584
v -0.230363 0.109657 0.095419
v -0.238584 0.104000 0.063928
v -0.240847 0.098343 0.064535
v -0.246311 0.096000 0.065999
v -0.251775 0.098343 0.067463
v -0.254038 0.104000 0.068069
v -0.251775 0.109657 0.067463
v -0.246311 0.112000 0.065999
v -0.240847 0.109657 0.064535
v -0.244887 0.104000 0.032240
v -0.247210 0.098343 0.032546
v -0.252818 0.096000 0.033284
v -0.258427 0.098343 0.034023
v -0.260750 0.104000 0.034328
v -0.258427 0.109657 0.034023
v -0.252818 0.112000 0.033284
v -0.247210 0.109657 0.032546
v -0.247000 0.104000 0.000000
v -0.249343 0.098343 0.000000
v -0.255000 0.096000 0.000000
v -0.260657 0.098343 0.000000
v -0.263000 0.104000 0.000000
v -0.260657 0.109657 0.000000
v -0.255000 0.112000 0.000000
v -0.249343 0.109657 0.000000
v -0.244887 0.104000 -0.032240
v -0.247210 0.098343 -0.032546
v -0.252818 0.096000 -0.033284
v -0.258427 0.098343 -0.034023
v -0.260750 0.104000 -0.034328
v -0.258427 0.109657 -0.034023
v -0.252818 0.112000 -0.033284
v -0.247210 0.109657 -0.032546
v -0.238584 0.104000 -0.063928
v -0.240847 0.098343 -0.064535
v -0.246311 0.096000 -0.065999
v -0.251775 0.098343 -0.067463
v -0.254038 0.104000 -0.068069
v -0.251775 0.109657 -0.067463
v -0.246311 0.112000 -0.065999
v -0.240847 0.109657 -0.064535
v -0.228198 0.104000 -0.094523
v -0.230363 0.098343 -0.095419
v -0.235589 0.096000 -0.097584
v -0.240816 0.098343 -0.099749
v -0.242980 0.104000 -0.100646
v -0.240816 0.109657 -0.099749
v -0.235589 0.112000 -0.097584
v -0.230363 0.109657 -0.095419
v -0.213908 0.104000 -0.123500
v -0.215937 0.098343 -0.124672
v -0.220836 0.096000 -0.127500
v -0.225735 0.098343 -0.130328
v -0.227765 0.104000 -0.131500
v -0.225735 0.109657 -0.130328
v -0.220836 0.112000 -0.127500
v -0.215937 0.109657 -0.124672
v -0.195958 0.104000 -0.150364
v -0.197817 0.098343 -0.151790
v -0.202305 0.096000 -0.155234
v -0.206793 0.098343 -0.158678
v -0.208652 0.104000 -0.160104
v -0.206793 0.109657 -0.158678
v -0.202305 0.112000 -0.155234
v -0.197817 0.109657 -0.151790
v -0.174655 0.104000 -0.174655
v -0.176312 0.098343 -0.176312
v -0.180312 0.096000 -0.180312
v -0.184312 0.098343 -0.184312
v -0.185969 0.104000 -0.185969
v -0.184312 0.109657 -0.184312
v -0.180312 0.112000 -0.180312
v -0.176312 0.109657 -0.176312
v -0.150364 0.104000 -0.195958
v -0.151790 0.098343 -0.197817
v -0.155234 0.096000 -0.202305
v -0.158678 0.098343 -0.206793
v -0.160104 0.104000 -0.208652
v -0.158678 0.109657 -0.206793
v -0.155234 0.112000 -0.202305
v -0.151790 0.109657 -0.197817
v -0.123500 0.104000 -0.213908
v -0.124672 0.098343 -0.215937
v -0.127500 0.096000 -0.220836
v -0.130328 0.098343 -0.225735
v -0.131500 0.104000 -0.227765
v -0.130328 0.109657 -0.225735
v -0.127500 0.112000 -0.220836
v -0.124672 0.109657 -0.215937
v -0.094523 0.104000 -0.228198
v -0.095419 0.098343 -0.230363
v -0.097584 0.096000 -0.235589
v -0.099749 0.098343 -0.240816
v -0.100646 0.104000 -0.242980
v -0.099749 0.109657 -0.240816
v -0.097584 0.112000 -0.235589
v -0.095419 0.109657 -0.230363
v -0.063928 0.104000 -0.238584
v -0.064535 0.098343 -0.240847
v -0.065999 0.096000 -0.246311
v -0.067463 0.098343 -0.251775
v -0.068069 0.104000 -0.254038
v -0.067463 0.109657 -0.251775
v -0.065999 0.112000 -0.246311
v -0.064535 0.109657 -0.240847
v -0.032240 0.104000 -0.244887
v -0.032546 0.098343 -0.247210
v -0.033284 0.096000 -0.252818
v -0.034023 0.098343 -0.258427
v -0.034328 0.104000 -0.260750
v -0.034023 0.109657 -0.258427
v -0.033284 0.112000 -0.252818
v -0.032546 0.109657 -0.247210
v -0.000000 0.104000 -0.247000
v -0.000000 0.098343 -0.249343
v -0.000000 0.096000 -0.255000
v -0.000000 0.098343 -0.260657
v -0.000000 0.104000 -0.263000
v -0.000000 0.109657 -0.260657
v -0.000000 0.112000 -0.255000
v -0.000000 0.109657 -0.249343
v 0.032240 0.104000 -0.244887
v 0.032546 0.098343 -0.247210
v 0.033284 0.096000 -0.252818
v 0.034023 0.098343 -0.258427
v 0.034328 0.104000 -0.260750
v 0.034023 0.109657 -0.258427
v 0.033284 0.112000 -0.252818
v 0.032546 0.109657 -0.247210
v 0.063928 0.104000 -0.238584
v 0.064535 0.098343 -0.240847
v 0.065999 0.096000 -0.246311
v 0.067463 0.098343 -0.251775
v 0.068069 0.104000 -0.254038
v 0.067463 0.109657 -0.251775
v 0.065999 0.112000 -0.246311
v 0.064535 0.109657 -0.240847
v 0.094523 0.104000 -0.228198
v 0.095419 0.098343 -0.230363
v 0.097584 0.096000 -0.235589
v 0.099749 0.098343 -0.240816
v 0.100646 0.104000 -0.242980
v 0.099749 0.109657 -0.240816
v 0.097584 0.112000 -0.235589
v 0.095419 0.109657 -0.230363
v 0.123500 0.104000 -0.213908
v 0.124672 0.098343 -0.215937
v 0.127500 0.096000 -0.220836
v 0.130328 0.098343 -0.225735
v 0.131500 0.104000 -0.227765
v 0.130328 0.109657 -0.225735
v 0.127500 0.112000 -0.220836
v 0.124672 0.109657 -0.215937
v 0.150364 0.104000 -0.195958
v 0.151790 0.098343 -0.197817
v 0.155234 0.096000 -0.202305
v 0.158678 0.098343 -0.206793
v 0.160104 0.104000 -0.208652
v 0.158678 0.109657 -0.206793
v 0.155234 0.112000 -0.202305
v 0.151790 0.109657 -0.197817
v 0.174655 0.104000 -0.174655
v 0.176312 0.098343 -0.176312
v 0.180312 0.096000 -0.180312
v 0.184312 0.098343 -0.184312
v 0.185969 0.104000 -0.185969
v 0.184312 0.109657 -0.184312
v 0.180312 0.112000 -0.180312
v 0.176312 0.109657 -0.176312
v 0.195958 0.104000 -0.150364
v 0.197817 0.098343 -0.151790
v 0.202305 0.096000 -0.155234
v 0.206793 0.098343 -0.158678
v 0.208652 0.104000 -0.160104
v 0.206793 0.109657 -0.158678
v 0.202305 0.112000 -0.155234
v 0.197817 0.109657 -0.151790
v 0.213908 0.104000 -0.123500
v 0.215937 0.098343 -0.124672
v 0.220836 0.096000 -0.127500
v 0.225735 0.098343 -0.130328
v 0.227765 0.104000 -0.131500
v 0.225735 0.109657 -0.130328
v 0.220836 0.112000 -0.127500
v 0.215937 0.109657 -0.124672
v 0.228198 0.104000 -0.094523
v 0.230363 0.098343 -0.095419
v 0.235589 0.096000 -0.097584
v 0.240816 0.098343 -0.099749
v 0.242980 0.104000 -0.100646
v 0.240816 0.109657 -0.099749
v 0.235589 0.112000 -0.097584
v 0.230363 0.109657 -0.095419
v 0.238584 0.104000 -0.063928
v 0.240847 0.098343 -0.064535
v 0.246311 0.096000 -0.065999
v 0.251775 0.098343 -0.067463
v 0.254038 0.104000 -0.068069
v 0.251775 0.109657 -0.067463
v 0.246311 0.112000 -0.065999
v 0.240847 0.109657 -0.064535
v 0.244887 0.104000 -0.032240
v 0.247210 0.098343 -0.032546
v 0.252818 0.096000 -0.033284
v 0.258427 0.098343 -0.034023
v 0.260750 0.104000 -0.034328
v 0.258427 0.109657 -0.034023
v 0.252818 0.112000 -0.033284
v 0.247210 0.109657 -0.032546
v 0.247017 0.104000 0.000523
v 0.249355 0.098343 0.000370
v 0.255000 0.096000 -0.000000
v 0.260645 0.098343 -0.000370
v 0.262983 0.104000 -0.000523
v 0.260645 0.109657 -0.000370
v 0.255000 0.112000 -0.000000
v 0.249355 0.109657 0.000370
vt 0.123247 0.128702
vt 0.124493 0.123279
vt 0.127500 0.121500
vt 0.130507 0.124408
vt 0.131753 0.130298
vt 0.130507 0.135721
vt 0.127500 0.137500
vt 0.124493 0.134592
vt 0.138563 0.128489
vt 0.139878 0.123064
vt 0.143051 0.121282
vt 0.146225 0.124186
vt 0.147539 0.130075
vt 0.146225 0.135500
vt 0.143051 0.137282
vt 0.139878 0.134378
vt 0.151256 0.127858
vt 0.152691 0.122428
vt 0.156155 0.120631
vt 0.159619 0.123521
vt 0.161054 0.129404
vt 0.159619 0.134834
vt 0.156155 0.136631
vt 0.152691 0.133742
vt 0.161361 0.126820
vt 0.162891 0.121379
vt 0.166587 0.119559
vt 0.170282 0.122425
vt 0.171813 0.128298
vt 0.170282 0.133738
vt 0.166587 0.135559
vt 0.162891 0.132693
vt 0.168704 0.125391
vt 0.170305 0.119937
vt 0.174168 0.118084
vt 0.178032 0.120917
vt 0.179632 0.126776
vt 0.178032 0.132230
vt 0.174168 0.134084
vt 0.170305 0.131251
vt 0.173161 0.123596
vt 0.174804 0.118125
vt 0.178770 0.116231
vt 0.182735 0.119022
vt 0.184378 0.124865
vt 0.182735 0.130336
vt 0.178770 0.132231
vt 0.174804 0.129439
vt 0.174655 0.121466
vt 0.176312 0.115974
vt 0.180312 0.114031
vt 0.184312 0.116774
vt 0.185969 0.122597
vt 0.184312 0.128088
vt 0.180312 0.130031
vt 0.176312 0.127288
vt 0.173161 0.119036
vt 0.174804 0.113522
vt 0.178770 0.111523
vt 0.182735 0.114211
vt 0.184378 0.120010
vt 0.182735 0.125525
vt 0.178770 0.127523
vt 0.174804 0.124836
vt 0.168704 0.116350
vt 0.170305 0.110810
vt 0.174168 0.108750
vt 0.178032 0.111376
vt 0.179632 0.117150
vt 0.178032 0.122690
vt 0.174168 0.124750
vt 0.170305 0.122124
vt 0.161361 0.113452
vt 0.162891 0.107885
vt 0.166587 0.105758
vt 0.170282 0.108318
vt 0.171813 0.114065
vt 0.170282 0.119632
vt 0.166587 0.121758
vt 0.162891 0.119199
vt 0.151256 0.110393
vt 0.152691 0.104797
vt 0.156155 0.102600
vt 0.159619 0.105089
vt 0.161054 0.110807
vt 0.159619 0.116403
vt 0.156155 0.118600
vt 0.152691 0.116110
vt 0.138563 0.107224
vt 0.139878 0.101598
vt 0.143051 0.099328
vt 0.146225 0.101745
vt 0.147539 0.107433
vt 0.146225 0.113059
vt 0.143051 0.115328
vt 0.139878 0.112911
vt 0.123500 0.104000
vt 0.124672 0.098343
vt 0.127500 0.096000
vt 0.130328 0.098343
vt 0.131500 0.104000
vt 0.130328 0.109657
vt 0.127500 0.112000
vt 0.124672 0.109657
vt 0.106323 0.100776
vt 0.107332 0.095089
vt 0.109767 0.092672
vt 0.112202 0.094941
vt 0.113211 0.100567
vt 0.112202 0.106255
vt 0.109767 0.108672
vt 0.107332 0.106402
vt 0.087328 0.097607
vt 0.088156 0.091890
vt 0.090156 0.089400
vt 0.092156 0.091597
vt 0.092985 0.097193
vt 0.092156 0.102911
vt 0.090156 0.105400
vt 0.088156 0.103203
vt 0.066838 0.094548
vt 0.067472 0.088801
vt 0.069003 0.086242
vt 0.070533 0.088368
vt 0.071167 0.093935
vt 0.070533 0.099682
vt 0.069003 0.102242
vt 0.067472 0.100115
vt 0.045204 0.091650
vt 0.045633 0.085876
vt 0.046668 0.083250
vt 0.047704 0.085310
vt 0.048132 0.090850
vt 0.047704 0.096624
vt 0.046668 0.099250
vt 0.045633 0.097190
vt 0.022797 0.088964
vt 0.023013 0.083164
vt 0.023535 0.080477
vt 0.024058 0.082475
vt 0.024274 0.087990
vt 0.024058 0.093789
vt 0.023535 0.096477
vt 0.023013 0.094478
vt 0.000000 0.086534
vt 0.000000 0.080712
vt 0.000000 0.077969
vt 0.000000 0.079912
vt 0.000000 0.085403
vt 0.000000 0.091226
vt 0.000000 0.093969
vt 0.000000 0.092026
vt 0.977203 0.084404
vt 0.976987 0.078561
vt 0.976465 0.075769
vt 0.975942 0.077664
vt 0.975726 0.083135
vt 0.975942 0.088978
vt 0.976465 0.091769
vt 0.976987 0.089875
vt 0.954796 0.082609
vt 0.954367 0.076749
vt 0.953332 0.073916
vt 0.952296 0.075770
vt 0.951868 0.081224
vt 0.952296 0.087083
vt 0.953332 0.089916
vt 0.954367 0.088063
vt 0.933162 0.081180
vt 0.932528 0.075307
vt 0.930997 0.072441
vt 0.929467 0.074262
vt 0.928833 0.079702
vt 0.929467 0.085575
vt 0.930997 0.088441
vt 0.932528 0.086621
vt 0.912672 0.080142
vt 0.911844 0.074258
vt 0.909844 0.071369
vt 0.907844 0.073166
vt 0.907015 0.078596
vt 0.907844 0.084479
vt 0.909844 0.087369
vt 0.911844 0.085572
vt 0.893677 0.079511
vt 0.892668 0.073622
vt 0.890233 0.070718
vt 0.887798 0.072500
vt 0.886789 0.077925
vt 0.887798 0.083814
vt 0.890233 0.086718
vt 0.892668 0.084936
vt 0.876500 0.079300
vt 0.875328 0.073409
vt 0.872500 0.070500
vt 0.869672 0.072277
vt 0.868500 0.077700
vt 0.869672 0.083591
vt 0.872500 0.086500
vt 0.875328 0.084723
vt 0.861437 0.079511
vt 0.860122 0.073622
vt 0.856949 0.070718
vt 0.853775 0.072500
vt 0.852461 0.077925
vt 0.853775 0.083814
vt 0.856949 0.086718
vt 0.860122 0.084936
vt 0.848744 0.080142
vt 0.847309 0.074258
vt 0.843845 0.071369
vt 0.840381 0.073166
vt 0.838946 0.078596
vt 0.840381 0.084479
vt 0.843845 0.087369
vt 0.847309 0.085572
vt 0.838639 0.081180
vt 0.837109 0.075307
vt 0.833413 0.072441
vt 0.829718 0.074262
vt 0.828187 0.079702
vt 0.829718 0.085575
vt 0.833413 0.088441
vt 0.837109 0.086621
vt 0.831296 0.082609
vt 0.829695 0.076749
vt 0.825832 0.073916
vt 0.821968 0.075770
vt 0.820368 0.081224
vt 0.821968 0.087083
vt 0.825832 0.089916
vt 0.829695 0.088063
vt 0.826839 0.084404
vt 0.825196 0.078561
vt 0.821230 0.075769
vt 0.817265 0.077664
vt 0.815622 0.083135
vt 0.817265 0.088978
vt 0.821230 0.091769
vt 0.825196 0.089875
vt 0.825345 0.086534
vt 0.823688 0.080712
vt 0.819688 0.077969
vt 0.815688 0.079912
vt 0.814031 0.085403
vt 0.815688 0.091226
vt 0.819688 0.093969
vt 0.823688 0.092026
vt 0.826839 0.088964
vt 0.825196 0.083164
vt 0.821230 0.080477
vt 0.817265 0.082475
vt 0.815622 0.087990
vt 0.817265 0.093789
vt 0.821230 0.096477
vt 0.825196 0.094478
vt 0.831296 0.091650
vt 0.829695 0.085876
vt 0.825832 0.083250
vt 0.821968 0.085310
vt 0.820368 0.090850
vt 0.821968 0.096624
vt 0.825832 0.099250
vt 0.829695 0.097190
vt 0.838639 0.094548
vt 0.837109 0.088801
vt 0.833413 0.086242
vt 0.829718 0.088368
vt 0.828187 0.093935
vt 0.829718 0.099682
vt 0.833413 0.102242
vt 0.837109 0.100115
vt 0.848744 0.097607
vt 0.847309 0.091890
vt 0.843845 0.089400
vt 0.840381 0.091597
vt 0.838946 0.097193
vt 0.840381 0.102911
vt 0.843845 0.105400
vt 0.847309 0.103203
vt 0.861437 0.100776
vt 0.860122 0.095089
vt 0.856949 0.092672
vt 0.853775 0.094941
vt 0.852461 0.100567
vt 0.853775 0.106255
vt 0.856949 0.108672
vt 0.860122 0.106402
vt 0.876500 0.104000
vt 0.875328 0.098343
vt 0.872500 0.096000
vt 0.869672 0.098343
vt 0.868500 0.104000
vt 0.869672 0.109657
vt 0.872500 0.112000
vt 0.875328 0.109657
vt 0.893677 0.107224
vt 0.892668 0.101598
vt 0.890233 0.099328
vt 0.887798 0.101745
vt 0.886789 0.107433
vt 0.887798 0.113059
vt 0.890233 0.115328
vt 0.892668 0.112911
vt 0.912672 0.110393
vt 0.911844 0.104797
vt 0.909844 0.102600
vt 0.907844 0.105089
vt 0.907015 0.110807
vt 0.907844 0.116403
vt 0.909844 0.118600
vt 0.911844 0.116110
vt 0.933162 0.113452
vt 0.932528 0.107885
vt 0.930997 0.105758
vt 0.929467 0.108318
vt 0.928833 0.114065
vt 0.929467 0.119632
vt 0.930997 0.121758
vt 0.932528 0.119199
vt 0.954796 0.116350
vt 0.954367 0.110810
vt 0.953332 0.108750
vt 0.952296 0.111376
vt 0.951868 0.117150
vt 0.952296 0.122690
vt 0.953332 0.124750
vt 0.954367 0.122124
vt 0.977203 0.119036
vt 0.976987 0.113522
vt 0.976465 0.111523
vt 0.975942 0.114211
vt 0.975726 0.120010
vt 0.975942 0.125525
vt 0.976465 0.127523
vt 0.976987 0.124836
vt 1.000000 0.121466
vt 1.000000 0.115974
vt 1.000000 0.114031
vt 1.000000 0.116774
vt 1.000000 0.122597
vt 1.000000 0.128088
vt 1.000000 0.130031
vt 1.000000 0.127288
vt 0.022797 0.123596
vt 0.023013 0.118125
vt 0.023535 0.116231
vt 0.024058 0.119022
vt 0.024274 0.124865
vt 0.024058 0.130336
vt 0.023535 0.132231
vt 0.023013 0.129439
vt 0.045204 0.125391
vt 0.045633 0.119937
vt 0.046668 0.118084
vt 0.047704 0.120917
vt 0.048132 0.126776
vt 0.047704 0.132230
vt 0.046668 0.134084
vt 0.045633 0.131251
vt 0.066838 0.126820
vt 0.067472 0.121379
vt 0.069003 0.119559
vt 0.070533 0.122425
vt 0.071167 0.128298
vt 0.070533 0.133738
vt 0.069003 0.135559
vt 0.067472 0.132693
vt 0.087328 0.127858
vt 0.088156 0.122428
vt 0.090156 0.120631
vt 0.092156 0.123521
vt 0.092985 0.129404
vt 0.092156 0.134834
vt 0.090156 0.136631
vt 0.088156 0.133742
vt 0.106323 0.128489
vt 0.107332 0.123064
vt 0.109767 0.121282
vt 0.112202 0.124186
vt 0.113211 0.130075
vt 0.112202 0.135500
vt 0.109767 0.137282
vt 0.107332 0.134378
vt 0.123770 0.128702
vt 0.124863 0.123279
vt 0.127500 0.121500
vt 0.130137 0.124408
vt 0.131230 0.130298
vt 0.130137 0.135721
vt 0.127500 0.137500
vt 0.124863 0.134592
f 199/199 200/200 208/208 207/207
f 200/200 201/201 209/209 208/208
f 201/201 202/202 210/210 209/209
f 202/202 203/203 211/211 210/210
f 203/203 204/204 212/212 211/211
f 204/204 205/205 213/213 212/212
f 205/205 206/206 214/214 213/213
f 206/206 199/199 207/207 214/214
f 207/207 208/208 216/216 215/215
f 208/208 209/209 217/217 216/216
f 209/209 210/210 218/218 217/217
f 210/210 211/211 219/219 218/218
f 211/211 212/212 220/220 219/219
f 212/212 213/213 221/221 220/220
f 213/213 214/214 222/222 221/221
f 214/214 207/207 215/215 222/222
f 215/215 216/216 224/224 223/223
f 216/216 217/217 225/225 224/224
f 217/217 218/218 226/226 225/225
f 218/218 219/219 227/227 226/226
f 219/219 220/220 228/228 227/227
f 220/220 221/221 229/229 228/228
f 221/221 222/222 230/230 229/229
f 222/222 215/215 223/223 230/230
f 223/223 224/224 232/232 231/231
f 224/224 225/225 233/233 232/232
f 225/225 226/226 234/234 233/233
f 226/226 227/227 235/235 234/234
f 227/227 228/228 236/236 235/235
f 228/228 229/229 237/237 236/236
f 229/229 230/230 238/238 237/237
f 230/230 223/223 231/231 238/238
f 231/231 232/232 240/240 239/239
f 232/232 233/233 241/241 240/240
f 233/233 234/234 242/242 241/241
f 234/234 235/235 243/243 242/242
f 235/235 236/236 244/244 243/243
f 236/236 237/237 245/245 244/244
f 237/237 238/238 246/246 245/245
f 238/238 231/231 239/239 246/246
f 239/239 240/240 248/248 247/247
f 240/240 241/241 249/249 248/248
f 241/241 242/242 250/250 249/249
f 242/242 243/243 251/251 250/250
f 243/243 244/244 252/252 251/251
f 244/244 245/245 253/253 252/252
f 245/245 246/246 254/254 253/253
f 246/246 239/239 247/247 254/254
f 247/247 248/248 256/256 255/255
f 248/248 249/249 257/257 256/256
f 249/249 250/250 258/258 257/257
f 250/250 251/251 259/259 258/258
f 251/251 252/252 260/260 259/259
f 252/252 253/253 261/261 260/260
f 253/253 254/254 262/262 261/261
f 254/254 247/247 255/255 262/262
f 255/255 256/256 264/264 263/263
f 256/256 257/257 265/265 264/264
f 257/257 258/258 266/266 265/265
f 258/258 259/259 267/267 266/266
f 259/259 260/260 268/268 267/267
f 260/260 261/261 269/269 268/268
f 261/261 262/262 270/270 269/269
f 262/262 255/255 263/263 270/270
f 263/263 264/264 272/272 271/271
f 264/264 265/265 273/273 272/272
f 265/265 266/266 274/274 273/273
f 266/266 267/267 275/275 274/274
f 267/267 268/268 276/276 275/275
f 268/268 269/269 277/277 276/276
f 269/269 270/270 278/278 277/277
f 270/270 263/263 271/271 278/278
f 271/271 272/272 280/280 279/279
f 272/272 273/273 281/281 280/280
f 273/273 274/274 282/282 281/281
f 274/274 275/275 283/283 282/282
f 275/275 276/276 284/284 283/283
f 276/276 277/277 285/285 284/284
f 277/277 278/278 286/286 285/285
f 278/278 271/271 279/279 286/286
f 279/279 280/280 288/288 287/287
f 280/280 281/281 289/289 288/288
f 281/281 282/282 290/290 289/289
f 282/282 283/283 291/291 290/290
f 283/283 284/284 292/292 291/291
f 284/284 285/285 293/293 292/292
f 285/285 286/286 294/294 293/293
f 286/286 279/279 287/287 294/294
f 287/287 288/288 296/296 295/295
f 288/288 289/289 297/297 296/296
f 289/289 290/290 298/298 297/297
f 290/290 291/291 299/299 298/298
f 291/291 292/292 300/300 299/299
f 292/292 293/293 301/301 300/300
f 293/293 294/294 302/302 301/301
f 294/294 287/287 295/295 302/302
f 295/295 296/296 304/304 303/303
f 296/296 297/297 305/305 304/304
f 297/297 298/298 306/306 305/305
f 298/298 299/299 307/307 306/306
f 299/299 300/300 308/308 307/307
f 300/300 301/301 309/309 308/308
f 301/301 302/302 310/310 309/309
f 302/302 295/295 303/303 310/310
f 303/303 304/304 312/312 311/311
f 304/304 305/305 313/313 312/312
f 305/305 306/306 314/314 313/313
f 306/306 307/307 315/315 314/314
f 307/307 308/308 316/316 315/315
f 308/308 309/309 317/317 316/316
f 309/309 310/310 318/318 317/317
f 310/310 303/303 311/311 318/318
f 311/311 312/312 320/320 319/319
f 312/312 313/313 321/321 320/320
f 313/313 314/314 322/322 321/321
f 314/314 315/315 323/323 322/322
f 315/315 316/316 324/324 323/323
f 316/316 317/317 325/325 324/324
f 317/317 318/318 326/326 325/325
f 318/318 311/311 319/319 326/326
f 319/319 320/320 328/328 327/327
f 320/320 321/321 329/329 328/328
f 321/321 322/322 330/330 329/329
f 322/322 323/323 331/331 330/330
f 323/323 324/324 332/332 331/331
f 324/324 325/325 333/333 332/332
f 325/325 326/326 334/334 333/333
f 326/326 319/319 327/327 334/334
f 327/327 328/328 336/336 335/335
f 328/328 329/329 337/337 336/336
f 329/329 330/330 338/338 337/337
f 330/330 331/331 339/339 338/338
f 331/331 332/332 340/340 339/339
f 332/332 333/333 341/341 340/340
f 333/333 334/334 342/342 341/341
f 334/334 327/327 335/335 342/342
f 335/335 336/336 344/344 343/343
f 336/336 337/337 345/345 344/344
f 337/337 338/338 346/346 345/345
f 338/338 339/339 347/347 346/346
f 339/339 340/340 348/348 347/347
f 340/340 341/341 349/349 348/348
f 341/341 342/342 350/350 349/349
f 342/342 335/335 343/343 350/350
f 343/343 344/344 352/352 351/351
f 344/344 345/345 353/353 352/352
f 345/345 346/346 354/354 353/353
f 346/346 347/347 355/355 354/354
f 347/347 348/348 356/356 355/355
f 348/348 349/349 357/357 356/356
f 349/349 350/350 358/358 357/357
f 350/350 343/343 351/351 358/358
f 351/351 352/352 360/360 359/359
f 352/352 353/353 361/361 360/360
f 353/353 354/354 362/362 361/361
f 354/354 355/355 363/363 362/362
f 355/355 356/356 364/364 363/363
f 356/356 357/357 365/365 364/364
f 357/357 358/358 366/366 365/365
f 358/358 351/351 359/359 366/366
f 359/359 360/360 368/368 367/367
f 360/360 361/361 369/369 368/368
f 361/361 362/362 370/370 369/369
f 362/362 363/363 371/371 370/370
f 363/363 364/364 372/372 371/371
f 364/364 365/365 373/373 372/372
f 365/365 366/366 374/374 373/373
f 366/366 359/359 367/367 374/374
f 367/367 368/368 376/376 375/375
f 368/368 369/369 377/377 376/376
f 369/369 370/370 378/378 377/377
f 370/370 371/371 379/379 378/378
f 371/371 372/372 380/380 379/379
f 372/372 373/373 381/381 380/380
f 373/373 374/374 382/382 381/381
f 374/374 367/367 375/375 382/382
f 375/375 376/376 384/384 383/383
f 376/376 377/377 385/385 384/384
f 377/377 378/378 386/386 385/385
f 378/378 379/379 387/387 386/386
f 379/379 380/380 388/388 387/387
f 380/380 381/381 389/389 388/388
f 381/381 382/382 390/390 389/389
f 382/382 375/375 383/383 390/390
f 383/383 384/384 392/392 391/391
f 384/384 385/385 393/393 392/392
f 385/385 386/386 394/394 393/393
f 386/386 387/387 395/395 394/394
f 387/387 388/388 396/396 395/395
f 388/388 389/389 397/397 396/396
f 389/389 390/390 398/398 397/397
f 390/390 383/383 391/391 398/398
f 391/391 392/392 400/400 399/399
f 392/392 393/393 401/401 400/400
f 393/393 394/394 402/402 401/401
f 394/394 395/395 403/403 402/402
f 395/395 396/396 404/404 403/403
f 396/396 397/397 405/405 404/404
f 397/397 398/398 406/406 405/405
f 398/398 391/391 399/399 406/406
f 399/399 400/400 408/408 407/407
f 400/400 401/401 409/409 408/408
f 401/401 402/402 410/410 409/409
f 402/402 403/403 411/411 410/410
f 403/403 404/404 412/412 411/411
f 404/404 405/405 413/413 412/412
f 405/405 406/406 414/414 413/413
f 406/406 399/399 407/407 414/414
f 407/407 408/408 416/416 415/415
f 408/408 409/409 417/417 416/416
f 409/409 410/410 418/418 417/417
f 410/410 411/411 419/419 418/418
f 411/411 412/412 420/420 419/419
f 412/412 413/413 421/421 420/420
f 413/413 414/414 422/422 421/421
f 414/414 407/407 415/415 422/422
f 415/415 416/416 424/424 423/423
f 416/416 417/417 425/425 424/424
f 417/417 418/418 426/426 425/425
f 418/418 419/419 427/427 426/426
f 419/419 420/420 428/428 427/427
f 420/420 421/421 429/429 428/428
f 421/421 422/422 430/430 429/429
f 422/422 415/415 423/423 430/430
f 423/423 424/424 432/432 431/431
f 424/424 425/425 433/433 432/432
f 425/425 426/426 434/434 433/433
f 426/426 427/427 435/435 434/434
f 427/427 428/428 436/436 435/435
f 428/428 429/429 437/437 436/436
f 429/429 430/430 438/438 437/437
f 430/430 423/423 431/431 438/438
f 431/431 432/432 440/440 439/439
f 432/432 433/433 441/441 440/440
f 433/433 434/434 442/442 441/441
f 434/434 435/435 443/443 442/442
f 435/435 436/436 444/444 443/443
f 436/436 437/437 445/445 444/444
f 437/437 438/438 446/446 445/445
f 438/438 431/431 439/439 446/446
f 439/439 440/440 448/448 447/447
f 440/440 441/441 449/449 448/448
f 441/441 442/442 450/450 449/449
f 442/442 443/443 451/451 450/450
f 443/443 444/444 452/452 451/451
f 444/444 445/445 453/453 452/452
f 445/445 446/446 454/454 453/453
f 446/446 439/439 447/447 454/454
f 447/447 448/448 456/456 455/455
f 448/448 449/449 457/457 456/456
f 449/449 450/450 458/458 457/457
f 450/450 451/451 459/459 458/458
f 451/451 452/452 460/460 459/459
f 452/452 453/453 461/461 460/460
f 453/453 454/454 462/462 461/461
f 454/454 447/447 455/455 462/462
f 455/455 456/456 464/464 463/463
f 456/456 457/457 465/465 464/464
f 457/457 458/458 466/466 465/465
f 458/458 459/459 467/467 466/466
f 459/459 460/460 468/468 467/467
f 460/460 461/461 469/469 468/468
f 461/461 462/462 470/470 469/469
f 462/462 455/455 463/463 470/470
f 463/463 464/464 472/472 471/471
f 464/464 465/465 473/473 472/472
f 465/465 466/466 474/474 473/473
f 466/466 467/467 475/475 474/474
f 467/467 468/468 476/476 475/475
f 468/468 469/469 477/477 476/476
f 469/469 470/470 478/478 477/477
f 470/470 463/463 471/471 478/478
f 471/471 472/472 480/480 479/479
f 472/472 473/473 481/481 480/480
f 473/473 474/474 482/482 481/481
f 474/474 475/475 483/483 482/482
f 475/475 476/476 484/484 483/483
f 476/476 477/477 485/485 484/484
f 477/477 478/478 486/486 485/485
f 478/478 471/471 479/479 486/486
f 479/479 480/480 488/488 487/487
f 480/480 481/481 489/489 488/488
f 481/481 482/482 490/490 489/489
f 482/482 483/483 491/491 490/490
f 483/483 484/484 492/492 491/491
f 484/484 485/485 493/493 492/492
f 485/485 486/486 494/494 493/493
f 486/486 479/479 487/487 494/494
f 487/487 488/488 496/496 495/495
f 488/488 489/489 497/497 496/496
f 489/489 490/490 498/498 497/497
f 490/490 491/491 499/499 498/498
f 491/491 492/492 500/500 499/499
f 492/492 493/493 501/501 500/500
f 493/493 494/494 502/502 501/501
f 494/494 487/487 495/495 502/502
f 495/495 496/496 504/504 503/503
f 496/496 497/497 505/505 504/504
f 497/497 498/498 506/506 505/505
f 498/498 499/499 507/507 506/506
f 499/499 500/500 508/508 507/507
f 500/500 501/501 509/509 508/508
f 501/501 502/502 510/510 509/509
f 502/502 495/495 503/503 510/510
f 503/503 504/504 512/512 511/511
f 504/504 505/505 513/513 512/512
f 505/505 506/506 514/514 513/513
f 506/506 507/507 515/515 514/514
f 507/507 508/508 516/516 515/515
f 508/508 509/509 517/517 516/516
f 509/509 510/510 518/518 517/517
f 510/510 503/503 511/511 518/518
f 511/511 512/512 520/520 519/519
f 512/512 513/513 521/521 520/520
f 513/513 514/514 522/522 521/521
f 514/514 515/515 523/523 522/522
f 515/515 516/516 524/524 523/523
f 516/516 517/517 525/525 524/524
f 517/517 518/518 526/526 525/525
f 518/518 511/511 519/519 526/526
f 519/519 520/520 528/528 527/527
f 520/520 521/521 529/529 528/528
f 521/521 522/522 530/530 529/529
f 522/522 523/523 531/531 530/530
f 523/523 524/524 532/532 531/531
f 524/524 525/525 533/533 532/532
f 525/525 526/526 534/534 533/533
f 526/526 519/519 527/527 534/534
f 527/527 528/528 536/536 535/535
f 528/528 529/529 537/537 536/536
f 529/529 530/530 538/538 537/537
f 530/530 531/531 539/539 538/538
f 531/531 532/532 540/540 539/539
f 532/532 533/533 541/541 540/540
f 533/533 534/534 542/542 541/541
f 534/534 527/527 535/535 542/542
f 535/535 536/536 544/544 543/543
f 536/536 537/537 545/545 544/544
f 537/537 538/538 546/546 545/545
f 538/538 539/539 547/547 546/546
f 539/539 540/540 548/548 547/547
f 540/540 541/541 549/549 548/548
f 541/541 542/542 550/550 549/549
f 542/542 535/535 543/543 550/550
f 543/543 544/544 552/552 551/551
f 544/544 545/545 553/553 552/552
f 545/545 546/546 554/554 553/553
f 546/546 547/547 555/555 554/554
f 547/547 548/548 556/556 555/555
f 548/548 549/549 557/557 556/556
f 549/549 550/550 558/558 557/557
f 550/550 543/543 551/551 558/558
f 551/551 552/552 560/560 559/559
f 552/552 553/553 561/561 560/560
f 553/553 554/554 562/562 561/561
f 554/554 555/555 563/563 562/562
f 555/555 556/556 564/564 563/563
f 556/556 557/557 565/565 564/564
f 557/557 558/558 566/566 565/565
f 558/558 551/551 559/559 566/566
f 559/559 560/560 568/568 567/567
f 560/560 561/561 569/569 568/568
f 561/561 562/562 570/570 569/569
f 562/562 563/563 571/571 570/570
f 563/563 564/564 572/572 571/571
f 564/564 565/565 573/573 572/572
f 565/565 566/566 574/574 573/573
f 566/566 559/559 567/567 574/574
f 567/567 568/568 576/576 575/575
f 568/568 569/569 577/577 576/576
f 569/569 570/570 578/578 577/577
f 570/570 571/571 579/579 578/578
f 571/571 572/572 580/580 579/579
f 572/572 573/573 581/581 580/580
f 573/573 574/574 582/582 581/581
f 574/574 567/567 575/575 582/582
f 575/575 576/576 584/584 583/583
f 576/576 577/577 585/585 584/584
f 577/577 578/578 586/586 585/585
f 578/578 579/579 587/587 586/586
f 579/579 580/580 588/588 587/587
f 580/580 581/581 589/589 588/588
f 581/581 582/582 590/590 589/589
f 582/582 575/575 583/583 590/590
